<?xml version="1.0" encoding="UTF-8"?>
<svg version="1.1" xmlns="http://www.w3.org/2000/svg" width="650" height="413">
<path d="M0 0 C2.54387827 0.02808542 5.08784358 0.04904211 7.63183594 0.06347656 C11.44607165 0.09173016 15.25817097 0.15555963 19.07177734 0.22900391 C20.26303223 0.23464355 21.45428711 0.2402832 22.68164062 0.24609375 C30.94474187 0.46225524 30.94474187 0.46225524 34.77490234 3.18603516 C35.75716797 4.59949219 35.75716797 4.59949219 36.75927734 6.04150391 C37.47986328 7.04181641 38.20044922 8.04212891 38.94287109 9.07275391 C39.69990773 10.22525745 40.45083985 11.38178578 41.19677734 12.54150391 C42.08973822 13.90365899 42.98298257 15.26562827 43.87646484 16.62744141 C44.34793945 17.3502832 44.81941406 18.073125 45.30517578 18.81787109 C47.78855486 22.61548973 50.30500239 26.39096539 52.82177734 30.16650391 C53.38928711 31.01849365 53.95679688 31.8704834 54.54150391 32.74829102 C64.36484479 47.47173639 74.30346665 62.11816548 84.22528076 76.77532959 C85.70572436 78.96239005 87.18588905 81.14963904 88.66601562 83.33691406 C90.87353677 86.59872248 93.08219462 89.85975801 95.29190063 93.12008667 C96.09194836 94.30067401 96.89174046 95.48143464 97.69125366 96.66238403 C101.64757561 102.50512356 105.62243523 108.32484414 109.75927734 114.04150391 C113.40695592 109.67825202 116.50679069 105.03057788 119.63427734 100.29150391 C120.90099207 98.38120683 122.16793431 96.4710606 123.43505859 94.56103516 C124.12809082 93.51512207 124.82112305 92.46920898 125.53515625 91.39160156 C127.86600583 87.87749931 130.20851219 84.37123994 132.55224609 80.86572266 C134.30902233 78.23699395 136.06551419 75.60807543 137.82177734 72.97900391 C138.27181122 72.3053479 138.72184509 71.63169189 139.18551636 70.93762207 C145.28663869 61.80009104 151.34763143 52.63705625 157.37646484 43.45166016 C158.0250798 42.46423325 158.67369476 41.47680634 159.34196472 40.4594574 C162.54897178 35.57699976 165.75222247 30.69215669 168.94897461 25.80297852 C170.1342757 23.9969624 171.319734 22.19104945 172.50537109 20.38525391 C173.0337558 19.57399551 173.5621405 18.76273712 174.10653687 17.92689514 C182.24859409 5.55218716 182.24859409 5.55218716 186.75927734 1.04150391 C194.34722532 -0.10731533 202.01186281 -0.0859369 209.66552734 0.02197266 C210.75265015 0.03609695 211.83977295 0.05022125 212.95983887 0.06477356 C215.23548475 0.09763277 217.51108324 0.13394329 219.78662109 0.17358398 C223.27753129 0.22929522 226.76804977 0.25751314 230.25927734 0.28564453 C232.47805504 0.32105928 234.69680737 0.35810966 236.91552734 0.39697266 C238.48107361 0.40352119 238.48107361 0.40352119 240.07824707 0.41020203 C241.04355347 0.43314835 242.00885986 0.45609467 243.00341797 0.47973633 C244.27602478 0.4975843 244.27602478 0.4975843 245.57434082 0.51579285 C247.75927734 1.04150391 247.75927734 1.04150391 249.3711853 2.53151512 C251.38244393 6.16833202 251.17970796 9.67688522 251.15368652 13.72703552 C251.15977763 14.61305625 251.16586873 15.49907699 251.17214441 16.41194683 C251.18882019 19.38682131 251.18399207 22.36126991 251.17919922 25.33618164 C251.18653686 27.46656745 251.19512219 29.59694927 251.2048645 31.72732544 C251.22712062 37.51859699 251.23000915 43.30972643 251.22811699 49.10103488 C251.22799748 53.93225533 251.23655342 58.76344545 251.2448945 63.59465748 C251.26414313 74.99012743 251.26700698 86.38552411 251.26025391 97.78100586 C251.25361078 109.54516655 251.27648527 121.30901388 251.31356764 133.073111 C251.34423209 143.16662293 251.35562823 153.2600339 251.35173082 163.3535915 C251.34966007 169.38502341 251.35519315 175.41621151 251.37962341 181.44759941 C251.40183425 187.11857775 251.40005967 192.78904542 251.37969589 198.46002579 C251.37627589 200.54296958 251.3814173 202.62594737 251.39567947 204.70884514 C251.41379014 207.54949348 251.40118395 210.38839428 251.3807373 213.22898865 C251.39325515 214.05603174 251.405773 214.88307484 251.41867018 215.73517984 C251.35299827 219.98181486 251.12598426 221.57546191 248.4079361 225.02978611 C244.78875321 227.77863951 242.22933052 228.16866706 237.81396484 228.17431641 C236.82686523 228.17641113 235.83976562 228.17850586 234.82275391 228.18066406 C233.24445801 228.17365479 233.24445801 228.17365479 231.63427734 228.16650391 C230.56145508 228.16312012 229.48863281 228.15973633 228.38330078 228.15625 C202.12570295 227.98778138 202.12570295 227.98778138 197.75927734 225.04150391 C196.36475232 222.25245386 196.54055079 219.87121476 196.44287109 216.7512207 C196.42204468 216.10392565 196.40121826 215.45663059 196.37976074 214.78972054 C196.3128257 212.62768484 196.25416453 210.46553179 196.19677734 208.30322266 C196.17559845 207.55251684 196.15441956 206.80181103 196.13259888 206.02835655 C195.62135485 187.63719633 195.68060938 169.25027579 195.75927734 150.85400391 C195.78662508 144.4021898 195.80982308 137.95039798 195.82177734 131.49853516 C195.82405838 130.34865301 195.82405838 130.34865301 195.8263855 129.17554092 C195.84285326 116.44288166 195.50344375 103.75462361 194.75927734 91.04150391 C191.30570705 94.3638746 188.89483637 97.849018 186.50927734 101.97900391 C185.70781454 103.34004659 184.905721 104.70071803 184.10302734 106.06103516 C183.70599609 106.73730957 183.30896484 107.41358398 182.89990234 108.11035156 C181.30192253 110.81583537 179.65917092 113.49241792 178.00927734 116.16650391 C177.35958984 117.21966797 176.70990234 118.27283203 176.04052734 119.35791016 C174.29426939 122.18055266 172.54265553 124.99984597 170.79052734 127.81884766 C165.38435152 136.52334673 160.01275079 145.24383362 154.75927734 154.04150391 C150.48414893 161.18953002 146.1789452 168.31813716 141.82177734 175.41650391 C141.29003906 176.29048828 140.75830078 177.16447266 140.21044922 178.06494141 C139.70191406 178.88994141 139.19337891 179.71494141 138.66943359 180.56494141 C138.22736572 181.28601074 137.78529785 182.00708008 137.32983398 182.75 C136.55240845 183.88429443 136.55240845 183.88429443 135.75927734 185.04150391 C135.06495605 186.10667236 134.37063477 187.17184082 133.65527344 188.26928711 C131.4510011 190.84842108 129.8858782 191.49698605 126.52319336 191.83374023 C124.85377488 191.87987891 123.18314623 191.89118787 121.51318359 191.87353516 C120.62445053 191.88164719 119.73571747 191.88975922 118.8200531 191.89811707 C116.94490323 191.90656253 115.06963041 191.89974818 113.19458008 191.87866211 C110.33287262 191.85409914 107.47794209 191.89874968 104.61669922 191.94970703 C102.79052169 191.94933649 100.96433957 191.94491339 99.13818359 191.93603516 C98.28801163 191.95334183 97.43783966 191.9706485 96.56190491 191.98847961 C93.06907694 191.90667028 90.70071053 191.8063835 87.93086243 189.5559845 C86.3809395 187.78320512 85.0484658 186.01054625 83.75927734 184.04150391 C83.32460144 183.38396622 82.88992554 182.72642853 82.44207764 182.04896545 C81.18531236 180.09445584 80.00083697 178.10630552 78.82177734 176.10400391 C77.86872716 174.51463578 76.91421838 172.92614167 75.95849609 171.33837891 C75.44851074 170.48953125 74.93852539 169.64068359 74.41308594 168.76611328 C71.3751538 163.76119409 68.24865166 158.81157141 65.13427734 153.85400391 C60.6281663 146.66934467 56.16826962 139.46545195 51.84887695 132.16699219 C48.87281819 127.16229034 45.7242511 122.27724576 42.5 117.4296875 C39.75927734 113.2552804 39.75927734 113.2552804 39.75927734 111.04150391 C39.09927734 110.71150391 38.43927734 110.38150391 37.75927734 110.04150391 C36.62434719 108.23965603 35.5506096 106.39901551 34.50927734 104.54150391 C31.46891091 99.21289524 28.22282977 94.10157677 24.75927734 89.04150391 C24.00525957 97.47268845 23.62312478 105.80704893 23.67749023 114.27001953 C23.68055679 115.41480774 23.68362335 116.55959595 23.68678284 117.73907471 C23.69387891 120.19815289 23.70323687 122.65722543 23.71467781 125.11628723 C23.73220707 129.00847756 23.7424095 132.90062611 23.75059509 136.79284668 C23.77458697 147.84973083 23.81077244 158.9065589 23.85522461 169.96337891 C23.88241109 176.74752812 23.89903531 183.53164765 23.91009331 190.31584167 C23.91630208 192.8962675 23.92630611 195.47668709 23.9401722 198.05708313 C23.95934941 201.654145 23.96627824 205.2510385 23.97045898 208.84814453 C23.97922058 209.91313171 23.98798218 210.9781189 23.99700928 212.07537842 C23.99570511 213.05633484 23.99440094 214.03729126 23.99305725 215.04797363 C23.99619966 215.8966526 23.99934206 216.74533157 24.00257969 217.61972809 C23.71811993 220.4511754 23.07016864 222.51534676 21.75927734 225.04150391 C15.05614759 228.65632183 8.54897995 228.43497592 1.07177734 228.29150391 C-0.66108521 228.27180542 -0.66108521 228.27180542 -2.42895508 228.25170898 C-5.70055066 228.20438823 -8.9700346 228.13097401 -12.24072266 228.04150391 C-13.42456543 228.01032471 -13.42456543 228.01032471 -14.63232422 227.97851562 C-25.15585144 227.63552283 -25.15585144 227.63552283 -30.24072266 224.04150391 C-31.87790486 220.76713949 -31.38487519 217.14381265 -31.38116455 213.5450592 C-31.38413567 212.65525264 -31.3871068 211.76544607 -31.39016795 210.84867567 C-31.3988811 207.84922167 -31.40036539 204.84980747 -31.40185547 201.8503418 C-31.40648173 199.70715753 -31.41150612 197.56397409 -31.41690063 195.42079163 C-31.43004362 189.58618427 -31.43647308 183.75158843 -31.44091129 177.91696858 C-31.44383845 174.27560663 -31.44794253 170.63424786 -31.45241547 166.9928875 C-31.46609428 155.61097511 -31.47575953 144.22906995 -31.47961736 132.84714991 C-31.48410173 119.68740667 -31.50166564 106.52776711 -31.53061795 93.3680554 C-31.55219608 83.20923906 -31.56231953 73.05045198 -31.56365848 62.89161295 C-31.56470912 56.81779306 -31.57067201 50.74407059 -31.58847809 44.67027473 C-31.60489238 38.96004937 -31.60714674 33.24999534 -31.59833908 27.53975487 C-31.59756518 25.43984648 -31.60195754 23.33992912 -31.61179733 21.24004364 C-31.62441048 18.38146585 -31.61869836 15.52350472 -31.60821533 12.66493225 C-31.61627174 11.82680829 -31.62432814 10.98868432 -31.63262868 10.12516266 C-31.58382071 4.46567427 -31.58382071 4.46567427 -29.8712852 2.3484754 C-23.31121734 -2.90972319 -7.93667591 -0.0879146 0 0 Z " fill="#6A2BFC" transform="translate(212.24072265625,109.95849609375)"/>
<path d="M0 0 C0.86759949 -0.00511093 1.73519897 -0.01022186 2.62908936 -0.01548767 C5.4793601 -0.02931782 8.32938732 -0.02843215 11.1796875 -0.02612305 C13.17073658 -0.03001302 15.16178484 -0.03434831 17.15283203 -0.03910828 C21.31871231 -0.04655591 25.48450781 -0.04628935 29.65039062 -0.04101562 C34.98000338 -0.03521682 40.30926908 -0.0521691 45.63882446 -0.0753603 C49.74814877 -0.09011312 53.85738974 -0.09096733 57.96673584 -0.08785057 C59.93146452 -0.0883628 61.89619799 -0.09358201 63.86090088 -0.10366249 C66.61062007 -0.11604235 69.35966604 -0.10922641 72.109375 -0.09765625 C72.91477722 -0.10529999 73.72017944 -0.11294373 74.54998779 -0.12081909 C79.77330255 -0.07240615 83.48367918 0.6603698 88.0546875 3.2746582 C91.84647386 7.46964658 91.48096506 12.04613146 91.44287109 17.40771484 C91.44812805 18.31885544 91.45338501 19.22999603 91.45880127 20.16874695 C91.47198301 23.1742782 91.46327029 26.179278 91.453125 29.18481445 C91.45514608 31.27559002 91.45805781 33.3663649 91.46182251 35.45713806 C91.46624324 39.83591432 91.45982211 44.21450683 91.44580078 48.59326172 C91.42869858 54.20797611 91.43855837 59.82226061 91.45651817 65.43695927 C91.46735367 69.75291692 91.4639109 74.06877249 91.4561348 78.3847332 C91.4541327 80.45520516 91.4565924 82.52568638 91.46357346 84.59614754 C91.47118513 87.48801396 91.45958799 90.37918176 91.44287109 93.27099609 C91.44894379 94.12772919 91.45501648 94.98446228 91.46127319 95.86715698 C91.42351839 99.38938778 91.38540531 101.66660269 89.68154907 104.79930115 C87.43979806 106.83228492 85.86306754 106.87254018 82.8671875 107.0246582 C81.89136719 107.0762207 80.91554688 107.1277832 79.91015625 107.1809082 C78.96785156 107.2118457 78.02554688 107.2427832 77.0546875 107.2746582 C75.90419922 107.35200195 75.90419922 107.35200195 74.73046875 107.4309082 C70.2743442 107.63461675 67.6121068 106.96967282 64.0546875 104.2746582 C63.0546875 103.2746582 63.0546875 103.2746582 62.93443298 101.37010193 C62.93665359 100.53737259 62.93887421 99.70464325 62.94116211 98.84667969 C62.94127541 97.43532997 62.94127541 97.43532997 62.94139099 95.99546814 C62.94655228 94.9725618 62.95171356 93.94965546 62.95703125 92.89575195 C62.9584462 91.85395279 62.95986115 90.81215363 62.96131897 89.73878479 C62.9669367 86.39654726 62.9794922 83.05437563 62.9921875 79.7121582 C62.99720022 77.45239354 63.00176352 75.19262784 63.00585938 72.93286133 C63.01691189 67.3801043 63.03366726 61.82738596 63.0546875 56.2746582 C62.3946875 55.9446582 61.7346875 55.6146582 61.0546875 55.2746582 C61.7146875 55.2746582 62.3746875 55.2746582 63.0546875 55.2746582 C62.7246875 53.6246582 62.3946875 51.9746582 62.0546875 50.2746582 C55.01490695 57.94685403 48.20322731 65.79130485 41.91796875 74.09887695 C41.30308594 74.81688477 40.68820312 75.53489258 40.0546875 76.2746582 C39.3946875 76.2746582 38.7346875 76.2746582 38.0546875 76.2746582 C37.84199219 76.80575195 37.62929688 77.3368457 37.41015625 77.8840332 C35.53220757 81.19615018 32.97423352 83.78393792 30.3671875 86.5246582 C29.27790368 87.6867234 28.18935881 88.8494817 27.1015625 90.01293945 C26.57626953 90.57319824 26.05097656 91.13345703 25.50976562 91.71069336 C20.83605653 96.73414645 16.4200247 101.98334039 12.0546875 107.2746582 C11.3946875 106.9446582 10.7346875 106.6146582 10.0546875 106.2746582 C10.07416139 100.70550875 10.12604173 95.13792765 10.20727539 89.56933594 C10.23039593 87.67717038 10.2448371 85.78487721 10.25024414 83.89257812 C10.25957744 81.16366605 10.30066157 78.43674451 10.34765625 75.70825195 C10.34175728 74.45001869 10.34175728 74.45001869 10.33573914 73.16636658 C10.54875116 64.48780582 14.99746997 60.09033025 21.0546875 54.2746582 C28.44704269 46.59312837 35.42720837 38.62595134 42.0546875 30.2746582 C40.22958886 28.01636528 40.22958886 28.01636528 37.55859375 28.0793457 C36.10259766 28.11415039 36.10259766 28.11415039 34.6171875 28.1496582 C33.64910156 28.16770508 32.68101562 28.18575195 31.68359375 28.2043457 C30.81605469 28.22754883 29.94851563 28.25075195 29.0546875 28.2746582 C28.0646875 28.2746582 27.0746875 28.2746582 26.0546875 28.2746582 C24.05290598 28.29160257 22.05112489 28.30859953 20.04934692 28.32595825 C16.65548611 28.35257392 13.26160324 28.36894444 9.86767578 28.38452148 C8.07924042 28.3945926 6.29082157 28.4082502 4.50244141 28.42553711 C1.9182534 28.44984878 -0.66571835 28.4611517 -3.25 28.4699707 C-4.04598602 28.48029327 -4.84197205 28.49061584 -5.66207886 28.50125122 C-9.83931026 28.50209177 -13.19509041 28.35267222 -16.9453125 26.2746582 C-20.20137227 20.5888499 -19.70555453 13.28320707 -18.515625 7.0090332 C-17.8828125 5.1496582 -17.8828125 5.1496582 -15.9453125 2.2746582 C-10.58891955 0.24105357 -5.68422284 -0.01748467 0 0 Z " fill="#FCA00B" transform="translate(456.9453125,49.725341796875)"/>
<path d="M0 0 C2.07494684 2.73613829 1.84445967 4.96449432 1.91992188 8.36865234 C1.9733374 10.3297998 1.9733374 10.3297998 2.02783203 12.33056641 C2.05104639 13.73517916 2.07365878 15.13980199 2.09570312 16.54443359 C2.12775046 17.97381818 2.16079234 19.40318082 2.19482422 20.83251953 C2.28542464 24.84046855 2.3489795 28.8484013 2.40820312 32.85693359 C2.4247998 33.75428223 2.44139648 34.65163086 2.45849609 35.57617188 C2.5373643 40.00739674 2.50655759 44.42629905 2.40820312 48.85693359 C2.39732666 50.00790527 2.39732666 50.00790527 2.38623047 51.18212891 C2.1596605 70.80539249 2.1596605 70.80539249 -3.59179688 77.85693359 C-9.73433677 83.75129006 -15.74888465 86.1249374 -24.21679688 86.48193359 C-25.01964111 86.51915527 -25.82248535 86.55637695 -26.6496582 86.59472656 C-41.28400828 87.17154138 -55.95012057 87.02145547 -70.59179688 86.85693359 C-71.36235413 86.84833313 -72.13291138 86.83973267 -72.92681885 86.83087158 C-77.44203521 86.77638024 -81.95607775 86.69920896 -86.47036743 86.59246826 C-87.87666125 86.56062612 -89.28306853 86.53343182 -90.68954468 86.51104736 C-92.63642858 86.47810023 -94.58291802 86.42389536 -96.52929688 86.36865234 C-98.18251953 86.32937622 -98.18251953 86.32937622 -99.86914062 86.28930664 C-102.59179688 85.85693359 -102.59179688 85.85693359 -104.40820312 84.51245117 C-107.33855669 80.41370374 -106.93781565 75.66743846 -106.59179688 70.85693359 C-105.71679688 67.85693359 -105.71679688 67.85693359 -104.59179688 65.85693359 C-101.64896676 64.38551854 -98.66357575 64.68680977 -95.43579102 64.66748047 C-94.69904648 64.65918716 -93.96230194 64.65089386 -93.20323181 64.64234924 C-91.60122399 64.62493544 -89.9991905 64.60977226 -88.39714241 64.59657288 C-85.86311782 64.57556892 -83.32922179 64.54854377 -80.79527283 64.51989746 C-75.41499675 64.46015938 -70.03466105 64.40802928 -64.65429688 64.35693359 C-58.4242664 64.29772674 -52.19429924 64.23543138 -45.96438408 64.16505432 C-43.46553954 64.13846121 -40.96668872 64.11765674 -38.4677887 64.0970459 C-36.93758845 64.08044263 -35.4073911 64.06357076 -33.87719727 64.04638672 C-32.83210495 64.04011009 -32.83210495 64.04011009 -31.76589966 64.03370667 C-28.76666595 63.99464905 -26.46218187 63.81372859 -23.59179688 62.85693359 C-22.54985747 59.73111539 -22.45508158 57.51997256 -22.43408203 54.23974609 C-22.41868881 52.51280518 -22.41868881 52.51280518 -22.40298462 50.75097656 C-22.39568329 49.50719238 -22.38838196 48.2634082 -22.38085938 46.98193359 C-22.35280133 44.36213557 -22.32413695 41.74234397 -22.29492188 39.12255859 C-22.25241983 34.98131657 -22.21563452 30.84011546 -22.19042969 26.69873047 C-22.16549935 22.70958176 -22.11706246 18.7208646 -22.06835938 14.73193359 C-22.06510651 13.48814941 -22.06185364 12.24436523 -22.0585022 10.96289062 C-22.0336525 9.23594971 -22.0336525 9.23594971 -22.00830078 7.47412109 C-22.00021393 6.45946777 -21.99212708 5.44481445 -21.98379517 4.39941406 C-21.59179688 1.85693359 -21.59179688 1.85693359 -20.29232788 0.08789062 C-14.50877228 -4.09863018 -5.82875941 -4.1856214 0 0 Z " fill="#6C2CFB" transform="translate(544.591796875,301.14306640625)"/>
<path d="M0 0 C0.67574066 -0.00511093 1.35148132 -0.01022186 2.04769897 -0.01548767 C4.25829169 -0.0292713 6.46856893 -0.02843629 8.67919922 -0.02612305 C10.22663487 -0.03001457 11.77406946 -0.03435018 13.32150269 -0.03910828 C16.55421423 -0.0465451 19.78681648 -0.04629654 23.01953125 -0.04101562 C27.1566323 -0.03520709 31.29328768 -0.05219728 35.43031502 -0.0753603 C38.62167971 -0.09010361 41.81293697 -0.09096884 45.00432968 -0.08785057 C46.5297217 -0.08836292 48.05511986 -0.0935844 49.58047867 -0.10366249 C51.71280104 -0.11602943 53.84425358 -0.10923603 55.9765625 -0.09765625 C57.18788849 -0.09828568 58.39921448 -0.0989151 59.64724731 -0.0995636 C63.17672838 0.31169327 65.04760794 1.13496866 67.85888672 3.2746582 C70.13012935 7.61066685 69.95354931 11.39550463 69.53857422 16.1262207 C68.59245606 19.11682408 67.31018126 20.32056168 64.85888672 22.2746582 C61.79632568 22.75567627 61.79632568 22.75567627 58.16259766 22.72875977 C57.49877075 22.72934387 56.83494385 22.72992798 56.15100098 22.73052979 C53.96454934 22.72775085 51.7794741 22.69667148 49.59326172 22.6652832 C48.07440943 22.65782005 46.5555475 22.65212746 45.03668213 22.64813232 C41.04485347 22.63288162 37.05360975 22.59360543 33.06201172 22.54931641 C28.98657138 22.50835109 24.91103624 22.49011867 20.83544922 22.4699707 C12.8429937 22.42710995 4.85101304 22.35886625 -3.14111328 22.2746582 C-3.47111328 22.9346582 -3.80111328 23.5946582 -4.14111328 24.2746582 C-4.47111328 24.2746582 -4.80111328 24.2746582 -5.14111328 24.2746582 C-5.14920013 25.04251648 -5.15728699 25.81037476 -5.1656189 26.60150146 C-5.24358619 33.84074809 -5.33088314 41.07979379 -5.42864037 48.31879807 C-5.47856884 52.04037504 -5.52489903 55.76192411 -5.56298828 59.48364258 C-5.59988491 63.07586233 -5.64625645 66.66784663 -5.69917679 70.25986481 C-5.71769754 71.62973141 -5.73281409 72.99964844 -5.74445724 74.36959076 C-5.7613586 76.28954476 -5.79152755 78.20936806 -5.82226562 80.12915039 C-5.83558929 81.22169128 -5.84891296 82.31423218 -5.86264038 83.43988037 C-6.13985465 86.26184571 -6.59823839 87.91782435 -8.14111328 90.2746582 C-12.45816685 92.8910543 -17.24848536 92.71863533 -22.14111328 92.2746582 C-25.36043335 91.3157118 -26.77240308 90.64336841 -29.14111328 88.2746582 C-29.42199707 85.44396973 -29.42199707 85.44396973 -29.46337891 81.78051758 C-29.47330872 81.11353851 -29.48323853 80.44655945 -29.49346924 79.7593689 C-29.52274765 77.54567354 -29.53632819 75.33226567 -29.54736328 73.1184082 C-29.5588718 71.57580561 -29.5703872 70.03320308 -29.58190918 68.49060059 C-29.60294487 65.2490099 -29.614617 62.00751851 -29.62158203 58.76586914 C-29.63249764 54.63431094 -29.68042392 50.50408923 -29.73752594 46.37294769 C-29.77500766 43.18135934 -29.78520222 39.99008381 -29.78825378 36.79829407 C-29.79426644 35.2769701 -29.81018612 33.75564896 -29.83662415 32.23454285 C-29.98535815 23.01143969 -29.48671847 15.49074392 -23.14111328 8.2746582 C-16.13786837 2.37193922 -9.20430323 0.0349635 0 0 Z " fill="#6B2CFA" transform="translate(143.14111328125,49.725341796875)"/>
<path d="M0 0 C3.08342834 3.38182463 3.07485745 6.29970371 3.14282227 10.69799805 C3.16276749 11.83895432 3.18271271 12.97991058 3.20326233 14.15544128 C3.21997482 15.38676285 3.23668732 16.61808441 3.25390625 17.88671875 C3.27468735 19.14764847 3.29546844 20.40857819 3.31687927 21.7077179 C3.37122122 25.05645458 3.42146166 28.40520205 3.46972656 31.75402832 C3.52000357 35.17266229 3.57565724 38.59120826 3.63085938 42.00976562 C3.738035 48.71477362 3.83980512 55.41984753 3.9375 62.125 C7.34043073 64.18899382 9.93370252 64.35954081 13.88012695 64.3203125 C15.07849686 64.31370605 16.27686676 64.30709961 17.5115509 64.30029297 C18.80324692 64.28369629 20.09494293 64.26709961 21.42578125 64.25 C22.77092282 64.24118191 24.11607265 64.2335505 25.46122742 64.22705078 C30.44519764 64.20036762 35.42891552 64.15206916 40.41271973 64.10424805 C44.62380265 64.06464015 48.83478933 64.03341421 53.04601097 64.01312256 C55.0129486 64.00024764 56.97979362 63.97509753 58.9466095 63.94970703 C70.4598661 63.886733 70.4598661 63.886733 75.9375 66.125 C79.01775934 69.50334895 79.33867916 72.60282021 79.17578125 77.12109375 C78.83891179 79.95411069 77.99344367 82.48514081 76.9375 85.125 C68.92513812 87.14578857 61.23939026 87.41733673 53.00390625 87.390625 C51.03332497 87.39349518 51.03332497 87.39349518 49.02293396 87.39642334 C46.25702141 87.39935227 43.49123906 87.3951503 40.7253418 87.38574219 C37.21114232 87.37436016 33.69724889 87.38091334 30.18306065 87.39288712 C26.78998585 87.40192638 23.39698969 87.39556348 20.00390625 87.390625 C18.7577504 87.39467346 17.51159454 87.39872192 16.22767639 87.40289307 C5.81699138 87.34765437 -4.82564986 87.25736342 -13.0625 80.125 C-18.07757444 74.53421548 -20.2989965 69.11287636 -20.36889648 61.56225586 C-20.39287758 59.60013405 -20.39287758 59.60013405 -20.41734314 57.59837341 C-20.4237182 56.17886751 -20.42911146 54.7593569 -20.43359375 53.33984375 C-20.44256558 51.87683523 -20.45168753 50.41382762 -20.46095276 48.95082092 C-20.47740944 45.890287 -20.48513745 42.82986209 -20.48803711 39.76928711 C-20.49343424 35.84923978 -20.53118128 31.93021642 -20.57678127 28.01045895 C-20.60652367 24.99154408 -20.61375994 21.97287747 -20.61476326 18.95382881 C-20.61896708 17.50851282 -20.63140819 16.0631962 -20.65228081 14.61802483 C-20.6791437 12.5983092 -20.67127282 10.57822197 -20.66186523 8.55834961 C-20.66693588 7.40983017 -20.67200653 6.26131073 -20.67723083 5.07798767 C-20.0625 2.125 -20.0625 2.125 -17.70155334 -0.23680115 C-14.74061621 -2.07481016 -12.83129812 -2.48474308 -9.375 -2.6875 C-8.42238281 -2.75582031 -7.46976563 -2.82414062 -6.48828125 -2.89453125 C-3.28244404 -2.86871936 -2.370781 -2.15525546 0 0 Z " fill="#6829F5" transform="translate(134.0625,300.875)"/>
<path d="M0 0 C2.54387827 0.02808542 5.08784358 0.04904211 7.63183594 0.06347656 C11.44607165 0.09173016 15.25817097 0.15555963 19.07177734 0.22900391 C20.26303223 0.23464355 21.45428711 0.2402832 22.68164062 0.24609375 C30.94715862 0.46231846 30.94715862 0.46231846 34.78271484 3.19775391 C35.76111328 4.60541016 35.76111328 4.60541016 36.75927734 6.04150391 C37.49791016 7.06888672 38.23654297 8.09626953 38.99755859 9.15478516 C40.02429688 10.73839844 40.02429688 10.73839844 41.07177734 12.35400391 C41.76916016 13.42263672 42.46654297 14.49126953 43.18505859 15.59228516 C43.70455078 16.40052734 44.22404297 17.20876953 44.75927734 18.04150391 C44.42927734 18.70150391 44.09927734 19.36150391 43.75927734 20.04150391 C43.28876953 19.36603516 42.81826172 18.69056641 42.33349609 17.99462891 C41.39957031 16.65658203 41.39957031 16.65658203 40.44677734 15.29150391 C39.83189453 14.40978516 39.21701172 13.52806641 38.58349609 12.61962891 C37.43639765 10.99846193 36.25552978 9.40016389 35.02880859 7.83837891 C33.75927734 6.04150391 33.75927734 6.04150391 33.75927734 4.04150391 C30.64481195 3.00334877 28.48405318 2.91470806 25.21801758 2.91210938 C24.08351669 2.90895721 22.94901581 2.90580505 21.78013611 2.90255737 C20.55508865 2.9045816 19.3300412 2.90660583 18.06787109 2.90869141 C16.81168472 2.90773468 15.55549835 2.90677795 14.26124573 2.90579224 C11.60406051 2.90511127 8.94696705 2.90645912 6.28979492 2.91113281 C2.88108111 2.91683573 -0.52755406 2.9135454 -3.93626499 2.90756035 C-7.18488914 2.90308266 -10.43350373 2.90621533 -13.68212891 2.90869141 C-15.52273643 2.90565506 -15.52273643 2.90565506 -17.40052795 2.90255737 C-18.53187668 2.90570953 -19.6632254 2.90886169 -20.82885742 2.91210938 C-21.82796646 2.91290497 -22.8270755 2.91370056 -23.85646057 2.91452026 C-26.25694468 2.88336004 -26.25694468 2.88336004 -28.24072266 4.04150391 C-28.26404796 32.57828538 -28.28170001 61.11506544 -28.29253483 89.65185452 C-28.29769857 102.90096289 -28.30474276 116.15006534 -28.31616211 129.39916992 C-28.32610656 140.94251273 -28.33257551 152.48585126 -28.33481115 164.02919823 C-28.33611867 170.14542645 -28.33920708 176.26164243 -28.34645271 182.37786674 C-28.35320916 188.12740912 -28.35534039 193.87693413 -28.35383034 199.6264801 C-28.35410684 201.74334876 -28.35611417 203.86021796 -28.35992813 205.97708321 C-28.36485953 208.85379807 -28.363723 211.73044626 -28.36097717 214.60716248 C-28.36389001 215.45636731 -28.36680286 216.30557215 -28.36980397 217.18051046 C-28.72064211 220.91488739 -28.72064211 220.91488739 -27.24072266 224.04150391 C-25.76717918 224.13454409 -24.28921675 224.15896656 -22.81274414 224.1550293 C-21.87184433 224.15495377 -20.93094452 224.15487823 -19.96153259 224.15480042 C-18.93862625 224.14963913 -17.91571991 224.14447784 -16.86181641 224.13916016 C-15.82001724 224.13774521 -14.77821808 224.13633026 -13.70484924 224.13487244 C-10.36261172 224.1292547 -7.02044009 224.11669921 -3.67822266 224.10400391 C-1.418458 224.09899119 0.84130771 224.09442789 3.10107422 224.09033203 C8.65383125 224.07927952 14.20654959 224.06252415 19.75927734 224.04150391 C20.73199439 220.7722431 20.89551149 217.80181566 20.91749573 214.3973999 C20.93217896 212.67266449 20.93217896 212.67266449 20.94715881 210.91308594 C20.95291428 209.6557666 20.95866974 208.39844727 20.96459961 207.10302734 C20.97418222 205.76254985 20.98419252 204.42207536 20.99459839 203.081604 C21.02161209 199.44561239 21.04264076 195.80960785 21.06260037 192.17357159 C21.08448175 188.37254676 21.11185991 184.57156163 21.13865662 180.77056885 C21.18855441 173.57419924 21.23350404 166.37780756 21.27667898 159.18139482 C21.32607626 150.98796139 21.38098515 142.7945678 21.43635857 134.60117292 C21.5501339 117.74798676 21.65698262 100.89476359 21.75927734 84.04150391 C25.08873482 85.59182076 26.55983778 86.78183462 28.49365234 89.93603516 C28.98124023 90.72026855 29.46882813 91.50450195 29.97119141 92.3125 C30.47875977 93.15119629 30.98632812 93.98989258 31.50927734 94.85400391 C32.04004883 95.7133252 32.57082031 96.57264648 33.11767578 97.45800781 C34.67360113 99.98060722 36.21702282 102.51053192 37.75927734 105.04150391 C38.51846696 106.27273011 39.27872809 107.50329691 40.04052734 108.73291016 C41.32161881 110.80451639 42.59669049 112.87986146 43.86474609 114.95947266 C45.24506583 117.20498249 46.641664 119.43363707 48.06005859 121.65478516 C48.62708496 122.55124756 48.62708496 122.55124756 49.20556641 123.46582031 C50.26137326 125.13358871 51.3245588 126.79667927 52.38818359 128.45947266 C52.84064453 129.31154297 53.29310547 130.16361328 53.75927734 131.04150391 C53.42927734 131.70150391 53.09927734 132.36150391 52.75927734 133.04150391 C52.15599609 132.10048828 51.55271484 131.15947266 50.93115234 130.18994141 C50.12388821 128.93211124 49.31659499 127.67429973 48.50927734 126.41650391 C48.11353516 125.79904297 47.71779297 125.18158203 47.31005859 124.54541016 C46.91689453 123.93310547 46.52373047 123.32080078 46.11865234 122.68994141 C45.72742188 122.07989258 45.33619141 121.46984375 44.93310547 120.84130859 C43.80343468 119.10920937 42.63602532 117.40804419 41.46240234 115.70556641 C39.75927734 113.04150391 39.75927734 113.04150391 39.75927734 111.04150391 C39.09927734 110.71150391 38.43927734 110.38150391 37.75927734 110.04150391 C36.62434719 108.23965603 35.5506096 106.39901551 34.50927734 104.54150391 C31.46891091 99.21289524 28.22282977 94.10157677 24.75927734 89.04150391 C24.00525957 97.47268845 23.62312478 105.80704893 23.67749023 114.27001953 C23.68055679 115.41480774 23.68362335 116.55959595 23.68678284 117.73907471 C23.69387891 120.19815289 23.70323687 122.65722543 23.71467781 125.11628723 C23.73220707 129.00847756 23.7424095 132.90062611 23.75059509 136.79284668 C23.77458697 147.84973083 23.81077244 158.9065589 23.85522461 169.96337891 C23.88241109 176.74752812 23.89903531 183.53164765 23.91009331 190.31584167 C23.91630208 192.8962675 23.92630611 195.47668709 23.9401722 198.05708313 C23.95934941 201.654145 23.96627824 205.2510385 23.97045898 208.84814453 C23.97922058 209.91313171 23.98798218 210.9781189 23.99700928 212.07537842 C23.99570511 213.05633484 23.99440094 214.03729126 23.99305725 215.04797363 C23.99619966 215.8966526 23.99934206 216.74533157 24.00257969 217.61972809 C23.71811993 220.4511754 23.07016864 222.51534676 21.75927734 225.04150391 C15.05614759 228.65632183 8.54897995 228.43497592 1.07177734 228.29150391 C-0.66108521 228.27180542 -0.66108521 228.27180542 -2.42895508 228.25170898 C-5.70055066 228.20438823 -8.9700346 228.13097401 -12.24072266 228.04150391 C-13.42456543 228.01032471 -13.42456543 228.01032471 -14.63232422 227.97851562 C-25.15585144 227.63552283 -25.15585144 227.63552283 -30.24072266 224.04150391 C-31.87790486 220.76713949 -31.38487519 217.14381265 -31.38116455 213.5450592 C-31.38413567 212.65525264 -31.3871068 211.76544607 -31.39016795 210.84867567 C-31.3988811 207.84922167 -31.40036539 204.84980747 -31.40185547 201.8503418 C-31.40648173 199.70715753 -31.41150612 197.56397409 -31.41690063 195.42079163 C-31.43004362 189.58618427 -31.43647308 183.75158843 -31.44091129 177.91696858 C-31.44383845 174.27560663 -31.44794253 170.63424786 -31.45241547 166.9928875 C-31.46609428 155.61097511 -31.47575953 144.22906995 -31.47961736 132.84714991 C-31.48410173 119.68740667 -31.50166564 106.52776711 -31.53061795 93.3680554 C-31.55219608 83.20923906 -31.56231953 73.05045198 -31.56365848 62.89161295 C-31.56470912 56.81779306 -31.57067201 50.74407059 -31.58847809 44.67027473 C-31.60489238 38.96004937 -31.60714674 33.24999534 -31.59833908 27.53975487 C-31.59756518 25.43984648 -31.60195754 23.33992912 -31.61179733 21.24004364 C-31.62441048 18.38146585 -31.61869836 15.52350472 -31.60821533 12.66493225 C-31.61627174 11.82680829 -31.62432814 10.98868432 -31.63262868 10.12516266 C-31.58382071 4.46567427 -31.58382071 4.46567427 -29.8712852 2.3484754 C-23.31121734 -2.90972319 -7.93667591 -0.0879146 0 0 Z " fill="#551FDB" transform="translate(212.24072265625,109.95849609375)"/>
<path d="M0 0 C2.78782584 2.39107657 2.98080706 2.81242682 3.38311005 6.74414635 C3.40228991 8.35107989 3.40469781 9.95826204 3.39440918 11.5652771 C3.40354584 12.89302656 3.40354584 12.89302656 3.41286707 14.24759924 C3.42956952 17.2255792 3.42471094 20.20313496 3.41992188 23.18115234 C3.42725804 25.31139065 3.43584293 27.44162498 3.44558716 29.57185364 C3.46786049 35.36731644 3.4707309 41.16263731 3.46883965 46.95813704 C3.4687202 51.79179264 3.47727367 56.62541789 3.48561716 61.45906508 C3.50487251 72.86075136 3.50772742 84.26236441 3.50097656 95.6640625 C3.49433508 107.43558678 3.51719976 119.20679777 3.55429029 130.97825849 C3.58495546 141.07599651 3.59635074 151.17363359 3.59245348 161.27141726 C3.59038255 167.30621747 3.59591822 173.34077401 3.62034607 179.37553024 C3.64255769 185.05059908 3.64078165 190.72515763 3.62041855 196.4002285 C3.61699852 198.484784 3.62214004 200.56937347 3.63640213 202.65388298 C3.65451283 205.49677389 3.6419065 208.33791864 3.62145996 211.18075562 C3.64023673 212.42234344 3.64023673 212.42234344 3.65939283 213.68901384 C3.59374826 217.9373108 3.36740087 219.53301036 0.64865875 222.98870277 C-2.97059669 225.7370366 -5.53015481 226.12716342 -9.9453125 226.1328125 C-11.42596191 226.13595459 -11.42596191 226.13595459 -12.93652344 226.13916016 C-14.51481934 226.13215088 -14.51481934 226.13215088 -16.125 226.125 C-17.19782227 226.12161621 -18.27064453 226.11823242 -19.37597656 226.11474609 C-45.63357439 225.94627747 -45.63357439 225.94627747 -50 223 C-51.40204323 220.19591354 -51.21568801 217.78656679 -51.30981445 214.65039062 C-51.3301367 213.99828613 -51.35045895 213.34618164 -51.37139702 212.67431641 C-51.43682875 210.50174966 -51.49433866 208.32906785 -51.55078125 206.15625 C-51.57159571 205.40425827 -51.59241016 204.65226654 -51.61385536 203.87748718 C-52.06074633 187.60772851 -52.18759619 171.3402008 -52.18530273 155.06494141 C-52.18519806 151.17392288 -52.19923096 147.28307464 -52.21607494 143.39209747 C-52.22712625 140.35019083 -52.22922465 137.30832787 -52.22869301 134.2664032 C-52.22986876 132.82784904 -52.23426771 131.38929361 -52.24202538 129.95075989 C-52.25175225 127.97435863 -52.24770209 125.99790378 -52.24291992 124.02148438 C-52.24505745 122.34330627 -52.24505745 122.34330627 -52.24723816 120.63122559 C-52 118 -52 118 -50 116 C-49.67 150.98 -49.34 185.96 -49 222 C-33.16 222 -17.32 222 -1 222 C0.84628431 220.15371569 0.1227432 217.54360127 0.12908131 215.08666033 C0.12616847 214.22967359 0.12325563 213.37268686 0.12025452 212.48973083 C0.12153615 211.13475159 0.12153615 211.13475159 0.12284368 209.75239903 C0.12450126 206.70136809 0.1189726 203.65039117 0.11352539 200.59936523 C0.11324355 198.42190553 0.11340119 196.24444573 0.1139679 194.06698608 C0.114256 188.13540803 0.10835716 182.20385001 0.10139394 176.27227664 C0.09516258 170.08093793 0.09455677 163.88959881 0.09336853 157.69825745 C0.09043182 146.63286153 0.08320169 135.56747393 0.07372581 124.50208182 C0.06178151 110.48013616 0.05559925 96.45819165 0.05032361 82.43624198 C0.03985775 54.95748951 0.02225706 27.47874527 0 0 Z " fill="#6429DB" transform="translate(460,112)"/>
<path d="M0 0 C0.67574066 -0.00511093 1.35148132 -0.01022186 2.04769897 -0.01548767 C4.25829169 -0.0292713 6.46856893 -0.02843629 8.67919922 -0.02612305 C10.22663487 -0.03001457 11.77406946 -0.03435018 13.32150269 -0.03910828 C16.55421423 -0.0465451 19.78681648 -0.04629654 23.01953125 -0.04101562 C27.1566323 -0.03520709 31.29328768 -0.05219728 35.43031502 -0.0753603 C38.62167971 -0.09010361 41.81293697 -0.09096884 45.00432968 -0.08785057 C46.5297217 -0.08836292 48.05511986 -0.0935844 49.58047867 -0.10366249 C51.71280104 -0.11602943 53.84425358 -0.10923603 55.9765625 -0.09765625 C57.18788849 -0.09828568 58.39921448 -0.0989151 59.64724731 -0.0995636 C63.17672838 0.31169327 65.04760794 1.13496866 67.85888672 3.2746582 C70.41522545 8.15494124 70.09798702 13.02846741 68.85888672 18.2746582 C67.86888672 19.7596582 67.86888672 19.7596582 66.85888672 21.2746582 C64.03683472 21.63542175 64.03683472 21.63542175 60.38964844 21.61523438 C59.39434616 21.61589149 59.39434616 21.61589149 58.37893677 21.61656189 C56.18185172 21.61446888 53.98552623 21.59111519 51.78857422 21.56762695 C50.26686012 21.56203278 48.74514062 21.55776184 47.22341919 21.55476379 C43.21524173 21.54330082 39.2073896 21.5138215 35.19934082 21.48065186 C31.11064048 21.44998205 27.02188765 21.43626509 22.93310547 21.42114258 C14.90821647 21.38895288 6.88359204 21.33773936 -1.14111328 21.2746582 C-1.14111328 20.9446582 -1.14111328 20.6146582 -1.14111328 20.2746582 C20.96888672 19.9446582 43.07888672 19.6146582 65.85888672 19.2746582 C66.99134271 15.87729022 66.80027528 13.69834067 66.48388672 10.1496582 C66.39365234 9.07458008 66.30341797 7.99950195 66.21044922 6.8918457 C66.13871588 4.35226292 66.13871588 4.35226292 64.85888672 3.2746582 C62.60109235 3.16439508 60.33979916 3.12550626 58.0793457 3.11352539 C57.3702858 3.10856049 56.66122589 3.10359558 55.93067932 3.09848022 C53.5721033 3.08381329 51.21359471 3.07704633 48.85498047 3.0715332 C47.21647642 3.06578196 45.57797239 3.06002422 43.93946838 3.05426025 C40.49520554 3.043735 37.05096613 3.03790349 33.60668945 3.03442383 C29.20743325 3.02896004 24.80848986 3.00498423 20.40933132 2.97645187 C17.01969018 2.95775569 13.63012298 2.95261602 10.24043465 2.95108795 C8.61982592 2.94807259 6.99921815 2.94008198 5.3786602 2.92690277 C-7.62756288 2.66309 -7.62756288 2.66309 -19.34814453 7.81762695 C-19.87794922 8.36032227 -20.40775391 8.90301758 -20.95361328 9.4621582 C-21.49630859 9.99196289 -22.03900391 10.52176758 -22.59814453 11.06762695 C-28.02928947 18.83622668 -27.56963024 27.04864206 -27.50439453 36.16918945 C-27.50387508 37.60788472 -27.50439605 39.0465807 -27.50590515 40.48527527 C-27.50581588 43.48508439 -27.49547383 46.4846222 -27.47729492 49.484375 C-27.45450633 53.32900384 -27.45408689 57.17324062 -27.46081257 61.01791859 C-27.46415137 63.98188261 -27.45752588 66.94575715 -27.44768333 69.90970421 C-27.44383718 71.32788309 -27.4426807 72.74607193 -27.44426918 74.16425514 C-27.44463973 76.14093898 -27.43054545 78.11760962 -27.41577148 80.09423828 C-27.41116409 81.21816483 -27.4065567 82.34209137 -27.40180969 83.50007629 C-27.34253863 86.48648834 -27.34253863 86.48648834 -25.14111328 89.2746582 C-19.86111328 89.2746582 -14.58111328 89.2746582 -9.14111328 89.2746582 C-8.81111328 68.4846582 -8.48111328 47.6946582 -8.14111328 26.2746582 C-7.81111328 26.2746582 -7.48111328 26.2746582 -7.14111328 26.2746582 C-6.96397978 34.02837503 -6.79803636 41.78224363 -6.64633751 49.53649521 C-6.57554516 53.13718647 -6.50091435 56.73771248 -6.41748047 60.33813477 C-6.33708963 63.81335827 -6.26682207 67.28865313 -6.2035408 70.76422882 C-6.16503728 72.73414313 -6.11607834 74.70384407 -6.06698608 76.67352295 C-6.03672836 78.47493744 -6.03672836 78.47493744 -6.00585938 80.31274414 C-5.98365326 81.36975525 -5.96144714 82.42676636 -5.93856812 83.51580811 C-6.1458284 86.33888241 -6.59695717 87.92420993 -8.14111328 90.2746582 C-12.45816685 92.8910543 -17.24848536 92.71863533 -22.14111328 92.2746582 C-25.36043335 91.3157118 -26.77240308 90.64336841 -29.14111328 88.2746582 C-29.42199707 85.44396973 -29.42199707 85.44396973 -29.46337891 81.78051758 C-29.47330872 81.11353851 -29.48323853 80.44655945 -29.49346924 79.7593689 C-29.52274765 77.54567354 -29.53632819 75.33226567 -29.54736328 73.1184082 C-29.5588718 71.57580561 -29.5703872 70.03320308 -29.58190918 68.49060059 C-29.60294487 65.2490099 -29.614617 62.00751851 -29.62158203 58.76586914 C-29.63249764 54.63431094 -29.68042392 50.50408923 -29.73752594 46.37294769 C-29.77500766 43.18135934 -29.78520222 39.99008381 -29.78825378 36.79829407 C-29.79426644 35.2769701 -29.81018612 33.75564896 -29.83662415 32.23454285 C-29.98535815 23.01143969 -29.48671847 15.49074392 -23.14111328 8.2746582 C-16.13786837 2.37193922 -9.20430323 0.0349635 0 0 Z " fill="#4F1DCB" transform="translate(143.14111328125,49.725341796875)"/>
<path d="M0 0 C2.07494684 2.73613829 1.84445967 4.96449432 1.91992188 8.36865234 C1.9733374 10.3297998 1.9733374 10.3297998 2.02783203 12.33056641 C2.05104639 13.73517916 2.07365878 15.13980199 2.09570312 16.54443359 C2.12775046 17.97381818 2.16079234 19.40318082 2.19482422 20.83251953 C2.28542464 24.84046855 2.3489795 28.8484013 2.40820312 32.85693359 C2.4247998 33.75428223 2.44139648 34.65163086 2.45849609 35.57617188 C2.5373643 40.00739674 2.50655759 44.42629905 2.40820312 48.85693359 C2.39732666 50.00790527 2.39732666 50.00790527 2.38623047 51.18212891 C2.1596605 70.80539249 2.1596605 70.80539249 -3.59179688 77.85693359 C-9.73433677 83.75129006 -15.74888465 86.1249374 -24.21679688 86.48193359 C-25.01964111 86.51915527 -25.82248535 86.55637695 -26.6496582 86.59472656 C-41.28400828 87.17154138 -55.95012057 87.02145547 -70.59179688 86.85693359 C-71.36235413 86.84833313 -72.13291138 86.83973267 -72.92681885 86.83087158 C-77.44203521 86.77638024 -81.95607775 86.69920896 -86.47036743 86.59246826 C-87.87666125 86.56062612 -89.28306853 86.53343182 -90.68954468 86.51104736 C-92.63642858 86.47810023 -94.58291802 86.42389536 -96.52929688 86.36865234 C-98.18251953 86.32937622 -98.18251953 86.32937622 -99.86914062 86.28930664 C-102.59179688 85.85693359 -102.59179688 85.85693359 -104.40820312 84.51245117 C-107.33855669 80.41370374 -106.93781565 75.66743846 -106.59179688 70.85693359 C-105.71679688 67.85693359 -105.71679688 67.85693359 -104.59179688 65.85693359 C-101.60936132 64.36571582 -98.56563935 64.72691887 -95.29638672 64.7434082 C-94.16941124 64.74318916 -94.16941124 64.74318916 -93.01966858 64.7429657 C-90.53066137 64.74366363 -88.04172855 64.75145046 -85.55273438 64.75927734 C-83.82923422 64.76114195 -82.10573354 64.76256565 -80.38223267 64.76356506 C-75.8415379 64.76738691 -71.30087502 64.77721437 -66.76019287 64.78826904 C-62.12854443 64.7984903 -57.49689084 64.80306422 -52.86523438 64.80810547 C-43.77407452 64.81883692 -34.68293835 64.83590937 -25.59179688 64.85693359 C-25.59179688 65.18693359 -25.59179688 65.51693359 -25.59179688 65.85693359 C-26.52474075 65.86502045 -27.45768463 65.8731073 -28.41889954 65.88143921 C-37.2036251 65.95886597 -45.98819512 66.04659638 -54.77271748 66.14446068 C-59.28912079 66.19444342 -63.80550049 66.24077323 -68.32202148 66.27880859 C-72.67930736 66.31563649 -77.03639659 66.36198953 -81.39351463 66.4149971 C-83.05727889 66.43355435 -84.72108532 66.44865739 -86.38491249 66.46027756 C-88.71229896 66.4771174 -91.03923376 66.50614632 -93.36645508 66.53808594 C-94.05697464 66.54024612 -94.7474942 66.54240631 -95.4589386 66.54463196 C-99.05842946 66.60789356 -100.50492246 66.79901731 -103.59179688 68.85693359 C-104.03373891 71.91149724 -104.03373891 71.91149724 -103.90429688 75.35693359 C-103.90042969 76.52224609 -103.8965625 77.68755859 -103.89257812 78.88818359 C-103.89594106 81.97427548 -103.89594106 81.97427548 -101.59179688 83.85693359 C-98.98949591 84.06585963 -96.49271382 84.15058827 -93.88842773 84.14746094 C-92.69535507 84.15753677 -92.69535507 84.15753677 -91.47817993 84.16781616 C-88.83760388 84.18687584 -86.19728128 84.19072535 -83.55664062 84.19287109 C-81.72017817 84.19929715 -79.88371676 84.20602536 -78.04725647 84.21304321 C-74.18943919 84.22503846 -70.33171157 84.2287221 -66.47387695 84.22753906 C-61.5466529 84.22733658 -56.62001024 84.25455509 -51.69292355 84.28908348 C-47.89489646 84.31140824 -44.09700755 84.31537478 -40.29892159 84.31431961 C-38.4837603 84.3166704 -36.66859491 84.32546434 -34.85349846 84.34098434 C-19.70537082 84.55701503 -19.70537082 84.55701503 -6.71679688 77.41943359 C-1.90368092 71.615382 -0.47326927 67.32058763 -0.4465332 59.86669922 C-0.44015335 58.65864624 -0.4337735 57.45059326 -0.42720032 56.20593262 C-0.42608749 54.90482544 -0.42497467 53.60371826 -0.42382812 52.26318359 C-0.42061337 50.91084762 -0.41724913 49.558512 -0.41374207 48.20617676 C-0.40776193 45.37507318 -0.40590109 42.54400008 -0.40649414 39.71289062 C-0.40659587 36.0879957 -0.3929272 32.46329615 -0.37572193 28.83844757 C-0.36459772 26.04688623 -0.36257504 23.25537213 -0.36310387 20.46379089 C-0.36135265 18.47849071 -0.35051772 16.49320526 -0.33955383 14.50793457 C-0.34416878 12.6958551 -0.34416878 12.6958551 -0.34887695 10.84716797 C-0.34745193 9.78445679 -0.34602692 8.72174561 -0.34455872 7.62683105 C-0.59166574 4.85840273 -1.16438157 3.21312759 -2.59179688 0.85693359 C-5.05078343 0.77616396 -7.5071343 0.71656217 -9.96679688 0.66943359 C-10.66546875 0.64429688 -11.36414063 0.61916016 -12.08398438 0.59326172 C-14.35927365 0.52714799 -14.35927365 0.52714799 -17.59179688 0.85693359 C-19.85983089 4.25898461 -19.85859633 5.52269146 -19.91064453 9.52172852 C-19.93051422 10.68270554 -19.95038391 11.84368256 -19.97085571 13.0398407 C-19.98240692 14.29303604 -19.99395813 15.54623138 -20.00585938 16.83740234 C-20.02522552 18.12052811 -20.04459167 19.40365387 -20.06454468 20.72566223 C-20.11586979 24.13354309 -20.15549319 27.54146345 -20.19268799 30.94952393 C-20.23272545 34.42852553 -20.28381892 37.90736278 -20.33398438 41.38623047 C-20.43074794 48.20967809 -20.51515126 55.03323117 -20.59179688 61.85693359 C-20.92179688 61.85693359 -21.25179687 61.85693359 -21.59179688 61.85693359 C-21.66128496 54.08577052 -21.71460189 46.31468012 -21.74723339 38.54328442 C-21.76289438 34.93475057 -21.78414003 31.32642916 -21.81811523 27.71801758 C-21.85069404 24.23615237 -21.86864663 20.75449159 -21.8764286 17.27248573 C-21.88467543 15.29651263 -21.90809726 13.32062185 -21.9316864 11.34477234 C-21.93191299 10.14375381 -21.93213959 8.94273529 -21.93237305 7.70532227 C-21.9423658 6.11647469 -21.9423658 6.11647469 -21.95256042 4.49552917 C-21.59179688 1.85693359 -21.59179688 1.85693359 -20.29707336 0.07344055 C-14.4823082 -4.07468576 -5.84336478 -4.1961095 0 0 Z " fill="#4617C1" transform="translate(544.591796875,301.14306640625)"/>
<path d="M0 0 C0.33 0 0.66 0 1 0 C1.33 34.98 1.66 69.96 2 106 C25.265 106.495 25.265 106.495 49 107 C49 107.66 49 108.32 49 109 C46.05176437 109.98274521 44.12772138 110.12888063 41.0546875 110.1328125 C40.06758789 110.13490723 39.08048828 110.13700195 38.06347656 110.13916016 C36.48518066 110.13215088 36.48518066 110.13215088 34.875 110.125 C33.80217773 110.12161621 32.72935547 110.11823242 31.62402344 110.11474609 C5.36642561 109.94627747 5.36642561 109.94627747 1 107 C-0.40193231 104.19613537 -0.21683753 101.78630129 -0.31201172 98.65039062 C-0.33250202 97.99828613 -0.35299232 97.34618164 -0.37410355 96.67431641 C-0.44000672 94.50175173 -0.49790427 92.32907114 -0.5546875 90.15625 C-0.57562344 89.40425827 -0.59655937 88.65226654 -0.61812973 87.87748718 C-1.06684009 71.60724794 -1.15511894 55.34051135 -1.13037109 39.06494141 C-1.12450915 35.17397056 -1.12808112 31.28306624 -1.13394356 27.39209747 C-1.13753717 24.35019413 -1.13641897 21.308307 -1.13381577 18.2664032 C-1.13315149 16.82785534 -1.13395737 15.389306 -1.13629532 13.95075989 C-1.13881921 11.97433499 -1.1342941 9.99790481 -1.12939453 8.02148438 C-1.12859894 6.90269897 -1.12780334 5.78391357 -1.12698364 4.63122559 C-1 2 -1 2 0 0 Z " fill="#4918CD" transform="translate(409,228)"/>
<path d="M0 0 C0.33 0 0.66 0 1 0 C1.05834353 3.22909006 1.09371115 6.45804338 1.125 9.6875 C1.14175781 10.59951172 1.15851563 11.51152344 1.17578125 12.45117188 C1.24469466 21.92676621 1.24469466 21.92676621 -1 25 C-7.70337097 28.614948 -14.21009569 28.39297962 -21.6875 28.25 C-23.41601196 28.23138916 -23.41601196 28.23138916 -25.17944336 28.21240234 C-43.30614981 27.9586669 -43.30614981 27.9586669 -48 27 C-48.33 26.34 -48.66 25.68 -49 25 C-26.23 24.505 -26.23 24.505 -3 24 C-2.22857201 20.91428805 -1.8411933 18.59527989 -1.71875 15.48828125 C-1.68136719 14.64845703 -1.64398438 13.80863281 -1.60546875 12.94335938 C-1.53468721 11.17775312 -1.46438088 9.41212775 -1.39453125 7.64648438 C-1.35714844 6.81052734 -1.31976563 5.97457031 -1.28125 5.11328125 C-1.25095703 4.34798096 -1.22066406 3.58268066 -1.18945312 2.79418945 C-1 1 -1 1 0 0 Z " fill="#5926D9" transform="translate(235,310)"/>
<path d="M0 0 C2.0625 2.125 2.0625 2.125 3 4 C2.34 4.66 1.68 5.32 1 6 C0.34 4.68 -0.32 3.36 -1 2 C-3.45898655 1.91923037 -5.91533742 1.85962857 -8.375 1.8125 C-9.07367187 1.78736328 -9.77234375 1.76222656 -10.4921875 1.73632812 C-12.76747677 1.67021439 -12.76747677 1.67021439 -16 2 C-18.26803401 5.40205102 -18.26679945 6.66575786 -18.31884766 10.66479492 C-18.33871735 11.82577194 -18.35858704 12.98674896 -18.37905884 14.1829071 C-18.39061005 15.43610245 -18.40216125 16.68929779 -18.4140625 17.98046875 C-18.43342865 19.26359451 -18.4527948 20.54672028 -18.4727478 21.86872864 C-18.52407292 25.2766095 -18.56369632 28.68452986 -18.60089111 32.09259033 C-18.64092857 35.57159193 -18.69202204 39.05042918 -18.7421875 42.52929688 C-18.83895107 49.35274449 -18.92335439 56.17629758 -19 63 C-19.33 63 -19.66 63 -20 63 C-20.06948809 55.22883692 -20.12280502 47.45774652 -20.15543652 39.68635082 C-20.1710975 36.07781697 -20.19234315 32.46949556 -20.22631836 28.86108398 C-20.25889717 25.37921878 -20.27684975 21.89755799 -20.28463173 18.41555214 C-20.29287856 16.43957903 -20.31630038 14.46368825 -20.33988953 12.48783875 C-20.34011612 11.28682022 -20.34034271 10.0858017 -20.34057617 8.84838867 C-20.34723801 7.78915695 -20.35389984 6.72992523 -20.36076355 5.63859558 C-20 3 -20 3 -18.70527649 1.21650696 C-13.00904589 -2.84705939 -6.23561998 -2.53480487 0 0 Z " fill="#491AC7" transform="translate(543,300)"/>
<path d="M0 0 C0.66 0 1.32 0 2 0 C2 10.89 2 21.78 2 33 C-0.19164944 29.71252584 -0.28679386 28.51505175 -0.4140625 24.67578125 C-0.45273437 23.64775391 -0.49140625 22.61972656 -0.53125 21.56054688 C-0.5621875 20.48869141 -0.593125 19.41683594 -0.625 18.3125 C-0.66367187 17.22904297 -0.70234375 16.14558594 -0.7421875 15.02929688 C-0.83650509 12.35303533 -0.92210005 9.67678157 -1 7 C-1.62390625 7.62390625 -2.2478125 8.2478125 -2.890625 8.890625 C-4.59375 10.59375 -6.296875 12.296875 -8 14 C-6.62091009 8.48364034 -3.8578521 4.13041773 0 0 Z " fill="#5820DD" transform="translate(408,194)"/>
<path d="M0 0 C0.82062424 0.02009628 1.64124847 0.04019257 2.48674011 0.06089783 C3.80875175 0.10145042 3.80875175 0.10145042 5.1574707 0.14282227 C6.0632637 0.16643326 6.9690567 0.19004425 7.90229797 0.21437073 C10.7961106 0.29095995 13.68965243 0.37500483 16.58325195 0.45922852 C18.54482723 0.51245394 20.50641574 0.56519431 22.46801758 0.61743164 C27.27743394 0.74656874 32.08662068 0.88239293 36.89575195 1.02172852 C36.89575195 1.35172852 36.89575195 1.68172852 36.89575195 2.02172852 C35.1668664 2.19128647 33.43762753 2.35724365 31.70825195 2.52172852 C30.74532227 2.61454102 29.78239258 2.70735352 28.7902832 2.80297852 C26.14112034 3.00318516 23.55072662 3.05742565 20.89575195 3.02172852 C19.90575195 3.02172852 18.91575195 3.02172852 17.89575195 3.02172852 C9.56241862 3.02172852 1.22908529 3.02172852 -7.10424805 3.02172852 C-7.10424805 2.36172852 -7.10424805 1.70172852 -7.10424805 1.02172852 C-4.32488467 0.09527406 -2.84680882 -0.07883471 0 0 Z " fill="#F89503" transform="translate(465.104248046875,74.978271484375)"/>
<path d="M0 0 C5.44511605 0.60501289 5.44511605 0.60501289 7.6809082 2.1965332 C9.51957835 4.71036929 9.34204604 6.45109964 9.29296875 9.54296875 C9.28330078 10.61611328 9.27363281 11.68925781 9.26367188 12.79492188 C9.23853516 13.91447266 9.21339844 15.03402344 9.1875 16.1875 C9.17396484 17.31865234 9.16042969 18.44980469 9.14648438 19.61523438 C9.11109958 22.41063317 9.06172948 25.20507892 9 28 C8.34 28.33 7.68 28.66 7 29 C6.97494385 28.34926514 6.9498877 27.69853027 6.92407227 27.02807617 C6.80806298 24.08101954 6.68535885 21.1342787 6.5625 18.1875 C6.52318359 17.16333984 6.48386719 16.13917969 6.44335938 15.08398438 C6.40146484 14.10107422 6.35957031 13.11816406 6.31640625 12.10546875 C6.27974854 11.19949951 6.24309082 10.29353027 6.20532227 9.36010742 C6.0791795 6.84951218 6.0791795 6.84951218 5 4 C4.01 3.67 3.02 3.34 2 3 C2 2.34 2 1.68 2 1 C1.34 0.67 0.68 0.34 0 0 Z " fill="#FE9805" transform="translate(538,51)"/>
<path d="M0 0 C2.0625 2.125 2.0625 2.125 3 4 C2.34 4.66 1.68 5.32 1 6 C0.34 4.68 -0.32 3.36 -1 2 C-3.45898655 1.91923037 -5.91533742 1.85962857 -8.375 1.8125 C-9.07367187 1.78736328 -9.77234375 1.76222656 -10.4921875 1.73632812 C-12.76747677 1.67021439 -12.76747677 1.67021439 -16 2 C-16.99 3.485 -16.99 3.485 -18 5 C-18.66 5 -19.32 5 -20 5 C-19.03517101 2.56519595 -18.4263372 1.25778528 -16.15234375 -0.1171875 C-10.36459444 -2.09747562 -5.72002462 -2.47512452 0 0 Z " fill="#5A22D1" transform="translate(543,300)"/>
<path d="M0 0 C0 0.66 0 1.32 0 2 C-1.175625 2.350625 -2.35125 2.70125 -3.5625 3.0625 C-9.19590729 5.19999851 -13.41667181 8.78842652 -16.1015625 14.234375 C-16.81936401 16.12615093 -17.42170844 18.06102242 -18 20 C-18.66 20 -19.32 20 -20 20 C-18.96078724 13.35604429 -15.86118332 8.17698731 -10.484375 4.0859375 C-3.86167062 0 -3.86167062 0 0 0 Z " fill="#5723D4" transform="translate(134,51)"/>
<path d="M0 0 C0 3 0 3 -2 6 C-2.66 6 -3.32 6 -4 6 C-4.26554687 6.58265625 -4.53109375 7.1653125 -4.8046875 7.765625 C-6.03302996 10.06174228 -7.40314939 11.80356018 -9.125 13.75 C-9.93324219 14.67039062 -9.93324219 14.67039062 -10.7578125 15.609375 C-11.16773438 16.06828125 -11.57765625 16.5271875 -12 17 C-12.66 16.67 -13.32 16.34 -14 16 C-12.60770997 14.26797907 -11.21099444 12.53951516 -9.8125 10.8125 C-9.03519531 9.84957031 -8.25789063 8.88664062 -7.45703125 7.89453125 C-5.08191073 5.09649579 -2.62917223 2.5544533 0 0 Z " fill="#F7950A" transform="translate(489,92)"/>
<path d="M0 0 C0.66 0 1.32 0 2 0 C1.41246271 3.0750708 0.54526011 4.87901137 -1.50390625 7.234375 C-1.99697266 7.80800781 -2.49003906 8.38164063 -2.99804688 8.97265625 C-3.51431641 9.55917969 -4.03058594 10.14570312 -4.5625 10.75 C-5.08263672 11.35199219 -5.60277344 11.95398438 -6.13867188 12.57421875 C-7.41956274 14.05488159 -8.70896312 15.52817542 -10 17 C-10.33 16.01 -10.66 15.02 -11 14 C-10.34 14 -9.68 14 -9 14 C-8.773125 13.278125 -8.54625 12.55625 -8.3125 11.8125 C-6.74790257 8.45979122 -4.63463827 6.56877231 -2 4 C-0.70480005 1.83379456 -0.70480005 1.83379456 0 0 Z " fill="#FA9608" transform="translate(517,97)"/>
<path d="M0 0 C5.4 0.6 5.4 0.6 7.875 2.25 C9.37422891 4.58213386 9.22023906 6.28371825 9 9 C7 6 7 6 7 4 C5.35 3.67 3.7 3.34 2 3 C2 2.34 2 1.68 2 1 C1.34 0.67 0.68 0.34 0 0 Z " fill="#F68F08" transform="translate(538,51)"/>
<path d="M0 0 C0 3.54404336 -0.60989485 4.10267905 -2.875 6.6875 C-3.40867187 7.31011719 -3.94234375 7.93273437 -4.4921875 8.57421875 C-6 10 -6 10 -8 10 C-6.34908222 5.70761377 -3.26245434 3.1206085 0 0 Z " fill="#F78E09" transform="translate(494,126)"/>
<path d="M0 0 C0.66 0.33 1.32 0.66 2 1 C1.8125 2.875 1.8125 2.875 1 5 C-1.5625 6.25 -1.5625 6.25 -4 7 C-2.79618552 4.50638429 -1.54571278 2.31856917 0 0 Z " fill="#F38D10" transform="translate(473,109)"/>
<path d="M0 0 C0.33 0 0.66 0 1 0 C1 1.98 1 3.96 1 6 C0.67 6 0.34 6 0 6 C0 4.02 0 2.04 0 0 Z " fill="#4000FF" transform="translate(179,125)"/>
<path d="M0 0 C0.33 0 0.66 0 1 0 C1 1.65 1 3.3 1 5 C0.67 5 0.34 5 0 5 C0 3.35 0 1.7 0 0 Z " fill="#BB44EE" transform="translate(464,169)"/>
<path d="M0 0 C0.33 0 0.66 0 1 0 C1 1.65 1 3.3 1 5 C0.67 5 0.34 5 0 5 C0 3.35 0 1.7 0 0 Z " fill="#4C00FF" transform="translate(179,138)"/>
<path d="M0 0 C0.66 0 1.32 0 2 0 C1.67 0.66 1.34 1.32 1 2 C0.67 1.34 0.34 0.68 0 0 Z " fill="#1C1CFF" transform="translate(251,224)"/>
<path d="" fill="#5500FF" transform="translate(0,0)"/>
<path d="" fill="#E21CE2" transform="translate(0,0)"/>
<path d="" fill="#B16363" transform="translate(0,0)"/>
<path d="M0 0 C3 1 3 1 3 1 Z " fill="#8080FF" transform="translate(426,109)"/>
<path d="" fill="#FFD400" transform="translate(0,0)"/>
<path d="M0 0 C0.66 0 1.32 0 2 0 C1.67 0.66 1.34 1.32 1 2 C0.67 1.34 0.34 0.68 0 0 Z " fill="#FFE200" transform="translate(467,79)"/>
<path d="M0 0 C2 1 2 1 2 1 Z " fill="#2A2AFF" transform="translate(125,385)"/>
<path d="M0 0 C2 1 2 1 2 1 Z " fill="#7339FF" transform="translate(458,337)"/>
<path d="M0 0 C2 1 2 1 2 1 Z " fill="#4000FF" transform="translate(184,337)"/>
<path d="" fill="#0000FF" transform="translate(0,0)"/>
<path d="" fill="#4020FF" transform="translate(0,0)"/>
<path d="" fill="#4000FF" transform="translate(0,0)"/>
<path d="" fill="#8000FF" transform="translate(0,0)"/>
<path d="" fill="#4000FF" transform="translate(0,0)"/>
<path d="" fill="#4000FF" transform="translate(0,0)"/>
<path d="" fill="#0000FF" transform="translate(0,0)"/>
<path d="" fill="#8020FF" transform="translate(0,0)"/>
<path d="" fill="#8080FF" transform="translate(0,0)"/>
<path d="" fill="#FF00FF" transform="translate(0,0)"/>
<path d="" fill="#954ADF" transform="translate(0,0)"/>
<path d="" fill="#8080BF" transform="translate(0,0)"/>
<path d="" fill="#4000FF" transform="translate(0,0)"/>
<path d="M0 0 C2 1 2 1 2 1 Z " fill="#0000FF" transform="translate(277,156)"/>
<path d="" fill="#8C738C" transform="translate(0,0)"/>
<path d="" fill="#0000FF" transform="translate(0,0)"/>
<path d="" fill="#8C738C" transform="translate(0,0)"/>
<path d="" fill="#4000FF" transform="translate(0,0)"/>
<path d="" fill="#8000FF" transform="translate(0,0)"/>
<path d="" fill="#808080" transform="translate(0,0)"/>
<path d="" fill="#FFD400" transform="translate(0,0)"/>
<path d="" fill="#FF007F" transform="translate(0,0)"/>
<path d="" fill="#BF40BF" transform="translate(0,0)"/>
<path d="M0 0 C2 1 2 1 2 1 Z " fill="#FFBF00" transform="translate(458,79)"/>
<path d="M0 0 C2 1 2 1 2 1 Z " fill="#0000FF" transform="translate(178,73)"/>
<path d="M0 0 C2 1 2 1 2 1 Z " fill="#0000FF" transform="translate(170,73)"/>
<path d="M0 0 C2 1 2 1 2 1 Z " fill="#4000FF" transform="translate(158,73)"/>
<path d="M0 0 C2 1 2 1 2 1 Z " fill="#0000FF" transform="translate(145,73)"/>
<path d="M0 0 C2 1 2 1 2 1 Z " fill="#6A2AFF" transform="translate(142,73)"/>
<path d="" fill="#0000FF" transform="translate(0,0)"/>
<path d="" fill="#0000FF" transform="translate(0,0)"/>
<path d="" fill="#8000FF" transform="translate(0,0)"/>
<path d="" fill="#0000FF" transform="translate(0,0)"/>
<path d="" fill="#0000FF" transform="translate(0,0)"/>
<path d="" fill="#0000FF" transform="translate(0,0)"/>
<path d="" fill="#0000FF" transform="translate(0,0)"/>
<path d="" fill="#5555FF" transform="translate(0,0)"/>
<path d="" fill="#0000FF" transform="translate(0,0)"/>
<path d="" fill="#0000FF" transform="translate(0,0)"/>
<path d="" fill="#5555FF" transform="translate(0,0)"/>
<path d="" fill="#0000FF" transform="translate(0,0)"/>
<path d="" fill="#0000FF" transform="translate(0,0)"/>
<path d="" fill="#8000FF" transform="translate(0,0)"/>
<path d="" fill="#0000FF" transform="translate(0,0)"/>
<path d="" fill="#0000FF" transform="translate(0,0)"/>
<path d="" fill="#0000FF" transform="translate(0,0)"/>
<path d="" fill="#0000FF" transform="translate(0,0)"/>
<path d="" fill="#0000FF" transform="translate(0,0)"/>
<path d="" fill="#0000FF" transform="translate(0,0)"/>
<path d="" fill="#0000FF" transform="translate(0,0)"/>
<path d="" fill="#8040FF" transform="translate(0,0)"/>
<path d="" fill="#5555FF" transform="translate(0,0)"/>
<path d="" fill="#0000FF" transform="translate(0,0)"/>
<path d="" fill="#8000FF" transform="translate(0,0)"/>
<path d="" fill="#0000FF" transform="translate(0,0)"/>
<path d="" fill="#0000FF" transform="translate(0,0)"/>
<path d="" fill="#0000FF" transform="translate(0,0)"/>
<path d="" fill="#0000FF" transform="translate(0,0)"/>
<path d="" fill="#0000FF" transform="translate(0,0)"/>
<path d="" fill="#0000FF" transform="translate(0,0)"/>
<path d="" fill="#8000FF" transform="translate(0,0)"/>
<path d="" fill="#0000FF" transform="translate(0,0)"/>
<path d="" fill="#0000FF" transform="translate(0,0)"/>
<path d="" fill="#0000FF" transform="translate(0,0)"/>
<path d="" fill="#8000FF" transform="translate(0,0)"/>
<path d="" fill="#0000FF" transform="translate(0,0)"/>
<path d="" fill="#8000FF" transform="translate(0,0)"/>
<path d="" fill="#0000FF" transform="translate(0,0)"/>
<path d="" fill="#0000FF" transform="translate(0,0)"/>
<path d="" fill="#5555FF" transform="translate(0,0)"/>
<path d="" fill="#8000FF" transform="translate(0,0)"/>
<path d="" fill="#0000FF" transform="translate(0,0)"/>
<path d="" fill="#0000FF" transform="translate(0,0)"/>
<path d="" fill="#5555FF" transform="translate(0,0)"/>
<path d="" fill="#0000FF" transform="translate(0,0)"/>
<path d="" fill="#5555FF" transform="translate(0,0)"/>
<path d="" fill="#0000FF" transform="translate(0,0)"/>
<path d="" fill="#8000FF" transform="translate(0,0)"/>
<path d="" fill="#0000FF" transform="translate(0,0)"/>
<path d="" fill="#0000FF" transform="translate(0,0)"/>
<path d="" fill="#8000FF" transform="translate(0,0)"/>
<path d="" fill="#8000FF" transform="translate(0,0)"/>
<path d="" fill="#8000FF" transform="translate(0,0)"/>
<path d="" fill="#0000FF" transform="translate(0,0)"/>
<path d="" fill="#5555FF" transform="translate(0,0)"/>
<path d="" fill="#0000FF" transform="translate(0,0)"/>
<path d="" fill="#0000FF" transform="translate(0,0)"/>
<path d="" fill="#8000FF" transform="translate(0,0)"/>
<path d="" fill="#8040FF" transform="translate(0,0)"/>
<path d="" fill="#0000FF" transform="translate(0,0)"/>
<path d="" fill="#0000FF" transform="translate(0,0)"/>
<path d="" fill="#0000FF" transform="translate(0,0)"/>
<path d="" fill="#0000FF" transform="translate(0,0)"/>
<path d="" fill="#0000FF" transform="translate(0,0)"/>
<path d="" fill="#0000FF" transform="translate(0,0)"/>
<path d="" fill="#0000FF" transform="translate(0,0)"/>
<path d="" fill="#0000FF" transform="translate(0,0)"/>
<path d="" fill="#0000FF" transform="translate(0,0)"/>
<path d="" fill="#8000FF" transform="translate(0,0)"/>
<path d="" fill="#0000FF" transform="translate(0,0)"/>
<path d="" fill="#0000FF" transform="translate(0,0)"/>
<path d="" fill="#0000FF" transform="translate(0,0)"/>
<path d="" fill="#8080FF" transform="translate(0,0)"/>
<path d="" fill="#0000FF" transform="translate(0,0)"/>
<path d="" fill="#0000FF" transform="translate(0,0)"/>
<path d="" fill="#0000FF" transform="translate(0,0)"/>
<path d="" fill="#5555FF" transform="translate(0,0)"/>
<path d="" fill="#0000FF" transform="translate(0,0)"/>
<path d="" fill="#0000FF" transform="translate(0,0)"/>
<path d="" fill="#0000FF" transform="translate(0,0)"/>
<path d="" fill="#8000FF" transform="translate(0,0)"/>
<path d="" fill="#FFFF00" transform="translate(0,0)"/>
<path d="" fill="#FFFF00" transform="translate(0,0)"/>
<path d="" fill="#FF00FF" transform="translate(0,0)"/>
<path d="" fill="#FF0000" transform="translate(0,0)"/>
<path d="" fill="#0000FF" transform="translate(0,0)"/>
<path d="" fill="#FF8080" transform="translate(0,0)"/>
<path d="" fill="#0000FF" transform="translate(0,0)"/>
<path d="" fill="#FF0000" transform="translate(0,0)"/>
<path d="" fill="#FFAA00" transform="translate(0,0)"/>
<path d="" fill="#FF00FF" transform="translate(0,0)"/>
<path d="" fill="#FFAA00" transform="translate(0,0)"/>
<path d="" fill="#FF8000" transform="translate(0,0)"/>
<path d="" fill="#0000FF" transform="translate(0,0)"/>
<path d="" fill="#808080" transform="translate(0,0)"/>
<path d="" fill="#0000FF" transform="translate(0,0)"/>
<path d="" fill="#5555FF" transform="translate(0,0)"/>
<path d="" fill="#FFFF00" transform="translate(0,0)"/>
<path d="" fill="#8000FF" transform="translate(0,0)"/>
<path d="" fill="#808080" transform="translate(0,0)"/>
<path d="" fill="#8000FF" transform="translate(0,0)"/>
<path d="" fill="#0000FF" transform="translate(0,0)"/>
<path d="" fill="#8000FF" transform="translate(0,0)"/>
<path d="" fill="#5555FF" transform="translate(0,0)"/>
<path d="" fill="#FFFF00" transform="translate(0,0)"/>
<path d="" fill="#8000FF" transform="translate(0,0)"/>
<path d="" fill="#808080" transform="translate(0,0)"/>
<path d="" fill="#FFFF00" transform="translate(0,0)"/>
<path d="" fill="#0000FF" transform="translate(0,0)"/>
<path d="" fill="#FF8000" transform="translate(0,0)"/>
<path d="" fill="#0000FF" transform="translate(0,0)"/>
<path d="" fill="#FF8080" transform="translate(0,0)"/>
<path d="" fill="#FFFF00" transform="translate(0,0)"/>
<path d="" fill="#FF00FF" transform="translate(0,0)"/>
<path d="" fill="#0000FF" transform="translate(0,0)"/>
<path d="" fill="#8000FF" transform="translate(0,0)"/>
<path d="" fill="#0000FF" transform="translate(0,0)"/>
<path d="" fill="#0000FF" transform="translate(0,0)"/>
<path d="" fill="#FFFF00" transform="translate(0,0)"/>
<path d="" fill="#FFFF00" transform="translate(0,0)"/>
<path d="" fill="#FFFF00" transform="translate(0,0)"/>
<path d="" fill="#FF8000" transform="translate(0,0)"/>
<path d="" fill="#FFFF00" transform="translate(0,0)"/>
<path d="" fill="#FFFF00" transform="translate(0,0)"/>
<path d="" fill="#FFFF00" transform="translate(0,0)"/>
<path d="" fill="#FFFF00" transform="translate(0,0)"/>
<path d="" fill="#FFFF00" transform="translate(0,0)"/>
<path d="" fill="#FFFF00" transform="translate(0,0)"/>
<path d="" fill="#0000FF" transform="translate(0,0)"/>
<path d="" fill="#0000FF" transform="translate(0,0)"/>
<path d="" fill="#0000FF" transform="translate(0,0)"/>
<path d="" fill="#0000FF" transform="translate(0,0)"/>
<path d="" fill="#8000FF" transform="translate(0,0)"/>
<path d="" fill="#0000FF" transform="translate(0,0)"/>
<path d="" fill="#0000FF" transform="translate(0,0)"/>
<path d="" fill="#8000FF" transform="translate(0,0)"/>
<path d="" fill="#FFFF00" transform="translate(0,0)"/>
<path d="" fill="#0000FF" transform="translate(0,0)"/>
<path d="" fill="#5555AA" transform="translate(0,0)"/>
</svg>
