<?xml version="1.0" encoding="UTF-8"?>
<svg version="1.1" xmlns="http://www.w3.org/2000/svg" width="689" height="332">
<path d="M0 0 C4.16226504 -0.22359275 8.32130216 -0.38625784 12.48779297 -0.49438477 C13.90247491 -0.5394723 15.31674131 -0.60076961 16.72998047 -0.67895508 C28.36882145 -1.30641902 28.36882145 -1.30641902 32.10424805 1.68530273 C33.71515602 4.04784614 34.85807494 6.38027518 36 9 C36.90746975 10.64515802 37.8256381 12.28445582 38.75390625 13.91796875 C39.69314931 15.67285275 40.62922103 17.42943693 41.5625 19.1875 C45.67351259 26.83062749 49.92229835 34.36334746 54.375 41.8125 C59.66589369 50.66770167 64.73858446 59.62799359 69.74707031 68.64550781 C74.2709191 76.76413291 78.94983042 84.78080144 83.73828125 92.74609375 C86.39369814 97.18316568 88.881865 101.60369142 91.03857422 106.30639648 C92.1184611 108.20867563 93.39731666 109.52348775 95 111 C98.48858627 104.95664095 101.85784629 98.84928633 105.22418213 92.7371521 C106.27481543 90.82995291 107.32650091 88.9233371 108.37841797 87.0168457 C111.62773917 81.12654677 114.87358476 75.23440555 118.1056366 69.33460999 C125.25058536 56.29332441 132.48562395 43.32470698 140.03662109 30.51196289 C144.38801569 23.11156765 148.56226335 15.6261832 152.6262207 8.06420898 C153.04347412 7.29278564 153.46072754 6.5213623 153.890625 5.7265625 C154.25188477 5.05189941 154.61314453 4.37723633 154.98535156 3.68212891 C156 2 156 2 158 0 C160.98095703 -0.22705078 160.98095703 -0.22705078 164.7578125 -0.1953125 C165.75238968 -0.19106766 165.75238968 -0.19106766 166.76705933 -0.18673706 C168.88655583 -0.17553435 171.00563104 -0.15043051 173.125 -0.125 C174.56119182 -0.11497028 175.99739025 -0.10584441 177.43359375 -0.09765625 C180.95586628 -0.075595 184.47789203 -0.04106494 188 0 C189.48050605 2.96101209 189.12602103 5.60972695 189.12698364 8.91542053 C189.12854363 9.63512903 189.13010362 10.35483753 189.13171089 11.09635538 C189.13571551 13.52006799 189.13253333 15.94371851 189.12939453 18.36743164 C189.1307488 20.1000726 189.13252887 21.83271327 189.13470459 23.56535339 C189.13927556 28.28003492 189.13749082 32.99469465 189.1343255 37.70937657 C189.13180058 42.63367985 189.13413977 47.5579812 189.13571167 52.48228455 C189.13753281 60.75194638 189.13512834 69.02159929 189.13037109 77.29125977 C189.12492679 86.86612445 189.12669258 96.44096784 189.1321975 106.01583201 C189.13672808 114.22304055 189.1373795 122.43024267 189.13475883 130.63745207 C189.13319598 135.54527761 189.13300254 140.45309313 189.13629532 145.36091805 C189.13917329 149.97289723 189.13719971 154.58484884 189.13140106 159.19682503 C189.13007314 160.89442906 189.13046811 162.59203539 189.13266373 164.28963852 C189.13537395 166.5969786 189.13199573 168.90422884 189.12698364 171.21156311 C189.1264181 173.15311075 189.1264181 173.15311075 189.12584114 175.13388157 C189 178 189 178 188 179 C185.72052208 179.1002093 183.43792865 179.13081303 181.15625 179.1328125 C180.12981384 179.13424759 180.12981384 179.13424759 179.0826416 179.13571167 C177.63338123 179.1363933 176.18411782 179.13454023 174.73486328 179.13037109 C172.50937072 179.12502252 170.28407999 179.1303166 168.05859375 179.13671875 C166.65364539 179.13605797 165.24869715 179.1347768 163.84375 179.1328125 C162.55662109 179.13168457 161.26949219 179.13055664 159.94335938 179.12939453 C157 179 157 179 156 178 C155.90434877 176.5325104 155.87811691 175.06043116 155.87974548 173.58982849 C155.87768349 172.16156738 155.87768349 172.16156738 155.87557983 170.70445251 C155.87917511 169.65141434 155.88277039 168.59837616 155.88647461 167.51342773 C155.88632858 166.41112823 155.88618256 165.30882874 155.8860321 164.17312622 C155.88673179 160.50992908 155.89452676 156.84678206 155.90234375 153.18359375 C155.90420773 150.65153532 155.90563173 148.11947652 155.90663147 145.5874176 C155.91006654 139.59151751 155.91795731 133.59563911 155.92798096 127.59974772 C155.93914323 120.77518942 155.94465283 113.95063028 155.94967639 107.12606514 C155.96013996 93.08403336 155.9777387 79.04201767 156 65 C155.34 65 154.68 65 154 65 C153.72849121 65.70833984 153.45698242 66.41667969 153.17724609 67.14648438 C150.9992086 72.42580876 148.25478689 77.43457627 145.625 82.5 C145.31320801 83.10124695 145.00141602 83.7024939 144.68017578 84.32196045 C139.70374084 93.9033741 134.49413245 103.32782589 129.078125 112.66796875 C125.56854866 118.72050082 122.16041837 124.82871866 118.75 130.9375 C117.57040792 133.04302221 116.3907236 135.14849275 115.2109375 137.25390625 C113.28604239 140.69202347 111.37250515 144.13568779 109.4765625 147.58984375 C108.77614536 148.85162006 108.07563487 150.11334457 107.375 151.375 C106.80523437 152.41398438 106.23546875 153.45296875 105.6484375 154.5234375 C103.94213763 157.08693068 102.68375594 158.50569269 100 160 C97.59765625 160.36328125 97.59765625 160.36328125 95.0625 160.3125 C94.22847656 160.30863281 93.39445312 160.30476562 92.53515625 160.30078125 C89.43509309 159.93297715 87.69833518 159.64828537 85 158 C82.89173254 155.19556463 81.28132986 152.14939931 79.625 149.0625 C79.11533691 148.14170654 78.60567383 147.22091309 78.08056641 146.2722168 C76.96881348 144.2610214 75.8634606 142.2462783 74.76367188 140.22851562 C72.9382842 136.88702523 71.08961536 133.5593759 69.234375 130.234375 C65.47596252 123.49707617 61.73669802 116.7493636 58 110 C54.67251882 103.99674122 51.33937529 97.99665054 48 92 C47.12601563 90.43016357 47.12601563 90.43016357 46.234375 88.82861328 C44.30407933 85.3637914 42.37111103 81.90047261 40.4375 78.4375 C39.81673584 77.32294434 39.19597168 76.20838867 38.55639648 75.06005859 C37.97962158 74.0283252 37.40284668 72.9965918 36.80859375 71.93359375 C36.29095459 71.00603271 35.77331543 70.07847168 35.23999023 69.12280273 C34.17084418 67.08620435 34.17084418 67.08620435 33 66 C33.00092179 66.5702207 33.00184359 67.1404414 33.00279331 67.72794151 C33.02485866 81.59001883 33.04135272 95.45209308 33.05181217 109.31418419 C33.0569728 116.01773076 33.06401108 122.72126563 33.07543945 129.42480469 C33.08627293 135.88921865 33.09227782 142.35362042 33.09487724 148.81804276 C33.09673066 151.28929461 33.10034967 153.76054576 33.10573006 156.23179245 C33.11294657 159.68237521 33.11399068 163.13290705 33.11352539 166.58349609 C33.11712067 167.61423752 33.12071594 168.64497894 33.12442017 169.70695496 C33.1230455 170.64367538 33.12167084 171.58039581 33.12025452 172.54550171 C33.12117631 173.36221029 33.1220981 174.17891888 33.12304783 175.02037621 C33 177 33 177 32 179 C27.46102295 179.02465392 22.92208457 179.04283789 18.38305664 179.05493164 C16.83780234 179.0599714 15.29255284 179.0668032 13.74731445 179.07543945 C11.53074971 179.08752076 9.31424782 179.09323173 7.09765625 179.09765625 C6.05545677 179.10539818 6.05545677 179.10539818 4.99220276 179.11329651 C3.3277067 179.11349277 1.66334501 179.06189129 0 179 C-1.90012167 177.09987833 -1.12625018 173.72959408 -1.12698364 171.21156311 C-1.12854363 170.4934146 -1.13010362 169.77526609 -1.13171089 169.03535551 C-1.13572342 166.61087089 -1.13253026 164.18644806 -1.12939453 161.76196289 C-1.13074847 160.03109195 -1.13252836 158.3002213 -1.13470459 156.5693512 C-1.13928012 151.85454332 -1.13748879 147.13975721 -1.1343255 142.42494893 C-1.13180211 137.50110771 -1.13413942 132.57726841 -1.13571167 127.65342712 C-1.1375336 119.3819851 -1.13512663 111.110552 -1.13037109 102.83911133 C-1.12493023 93.26485544 -1.12668977 83.69062086 -1.1321975 74.11636549 C-1.13673011 65.91001072 -1.13737839 57.70366238 -1.13475883 49.49730676 C-1.13319664 44.58999338 -1.13300067 39.68269002 -1.13629532 34.77537727 C-1.13917611 30.16176668 -1.13719448 25.54818364 -1.13140106 20.93457603 C-1.13007451 19.23739289 -1.13046582 17.54020745 -1.13266373 15.84302521 C-1.13537937 13.53379194 -1.13198897 11.22464804 -1.12698364 8.91542053 C-1.12660662 7.62067842 -1.12622959 6.3259363 -1.12584114 4.99195957 C-1 2 -1 2 0 0 Z " fill="#FAFAFA" transform="translate(32,78)"/>
<path d="M0 0 C11.22 0.33 22.44 0.66 34 1 C35.03125 3.31 36.0625 5.62 37.125 8 C37.4358252 8.68964844 37.74665039 9.37929687 38.06689453 10.08984375 C40.15421546 14.81660761 41.99480086 19.61924661 43.78515625 24.46484375 C46.75968962 32.49730773 50.02104168 40.39294481 53.35101318 48.28353882 C58.5662215 60.64487036 63.68374705 73.02922718 68.47387695 85.56274414 C68.79960693 86.41215576 69.12533691 87.26156738 69.4609375 88.13671875 C69.73728027 88.86592529 70.01362305 89.59513184 70.29833984 90.34643555 C70.88037695 92.00528324 70.88037695 92.00528324 72 93 C72.36013184 92.05423096 72.72026367 91.10846191 73.09130859 90.1340332 C80.81925394 69.85895133 88.68328745 49.64289465 96.75 29.5 C97.14112976 28.52269928 97.53225952 27.54539856 97.9352417 26.53848267 C99.05437252 23.74383547 100.1751446 20.94985467 101.296875 18.15625 C101.62754974 17.3317485 101.95822449 16.50724701 102.29891968 15.65776062 C107.65764314 2.34235686 107.65764314 2.34235686 109 1 C111.3756852 0.9116033 113.72208674 0.88469695 116.09765625 0.90234375 C117.16094398 0.90446617 117.16094398 0.90446617 118.24571228 0.90663147 C120.51801712 0.91224557 122.79022475 0.92480037 125.0625 0.9375 C126.59960796 0.94251319 128.13671745 0.94707641 129.67382812 0.95117188 C133.44925642 0.96221958 137.22461171 0.97949359 141 1 C140.48822013 5.22129706 139.84471328 8.94465157 138.19921875 12.8671875 C137.80968018 13.80916992 137.4201416 14.75115234 137.01879883 15.72167969 C136.57947021 16.76227539 136.1401416 17.80287109 135.6875 18.875 C134.95372284 20.64427809 134.22000469 22.41358095 133.4874115 24.18334961 C132.93688505 25.51205951 132.38529698 26.84032993 131.83277893 28.16821289 C128.04134144 37.28306693 124.33074802 46.43100648 120.60687256 55.5736084 C116.74454107 65.05177388 112.87143092 74.52554848 109 84 C108.61980713 84.93050171 108.23961426 85.86100342 107.84790039 86.81970215 C103.82909022 96.65413899 99.80300347 106.48550201 95.75471497 116.30784607 C93.92439592 120.74939978 92.102905 125.19443209 90.28807068 129.64233398 C89.13630584 132.45925391 87.97634817 135.27274712 86.81417847 138.08538818 C86.03976338 139.96594052 85.27463162 141.85030783 84.51000977 143.73486328 C77.56858191 160.46032091 69.91488626 175.24210463 52.79296875 183 C40.4899681 187.89297158 24.35118787 187.70364811 12 183 C-0.44608854 177.39316577 -0.44608854 177.39316577 -1.74975586 174.11425781 C-2.18772451 170.41395682 -0.05330489 167.3762793 1.625 164.1875 C2.14126953 163.15786133 2.14126953 163.15786133 2.66796875 162.10742188 C5.07317372 157.41682841 7.85124698 153.225958 11 149 C14.06667929 150.15000474 16.88765429 151.48820986 19.75 153.0625 C25.76116684 156.06244443 31.26359881 156.75745474 37.75 154.875 C44.07876187 152.42054105 47.16303505 148.19892034 50.203125 142.35546875 C52.67297536 135.05488166 51.94475251 130.35316148 48.90625 123.515625 C48.56842499 122.71515747 48.23059998 121.91468994 47.88253784 121.08996582 C46.77193993 118.46906684 45.63601093 115.85997131 44.5 113.25 C43.71506243 111.40868521 42.93204775 109.56654963 42.15087891 107.72363281 C40.55221842 103.95784463 38.94455118 100.19611577 37.32910156 96.4375 C34.26186514 89.29205796 31.26853021 82.11632727 28.28414917 74.93597412 C27.37376169 72.74702259 26.46070483 70.55920044 25.54711914 68.37158203 C20.30394301 55.80336886 15.18158889 43.18689681 10.09716797 30.55371094 C9.80382568 29.82623657 9.5104834 29.09876221 9.20825195 28.34924316 C8.63620825 26.93039143 8.06537668 25.5110503 7.49584961 24.09118652 C6.1223269 20.68679222 4.7074971 17.31117951 3.19970703 13.96386719 C2.91438614 13.32488495 2.62906525 12.68590271 2.33509827 12.02755737 C1.55693609 10.29758112 0.76445374 8.57406629 -0.02905273 6.85107422 C-1 4 -1 4 0 0 Z " fill="#F8F7F7" transform="translate(530,119)"/>
<path d="M0 0 C0.70769531 0.51046875 1.41539062 1.0209375 2.14453125 1.546875 C14.6227772 11.49009268 22.71110925 28.05028643 24.75390625 43.71875 C26.35107668 65.01435569 23.63547447 84.76896431 10 102 C9.35417969 102.83402344 8.70835937 103.66804688 8.04296875 104.52734375 C-2.94935802 117.76300251 -18.10279406 124.79409844 -35 127 C-54.62274048 128.13124446 -74.33814837 124.7849581 -89.65625 111.57128906 C-101.36784394 100.91773117 -107.61960256 90.17435794 -112 75 C-112.24878906 74.14664063 -112.49757812 73.29328125 -112.75390625 72.4140625 C-117.46590137 53.10476781 -112.79841672 32.15134009 -102.8125 15.375 C-91.96364804 -0.80515475 -75.81617785 -9.71189987 -57.03125 -13.6171875 C-36.52663709 -16.20668758 -16.83178607 -12.15482196 0 0 Z M-71.3125 27.25 C-80.83652852 38.46255151 -80.81392835 52.03777383 -80 66 C-78.94723008 72.91346544 -76.01239193 78.34963794 -72 84 C-71.443125 84.86625 -70.88625 85.7325 -70.3125 86.625 C-63.49397479 93.62780967 -54.89894728 97.00244385 -45.25 97.3125 C-34.73414841 97.07618873 -26.5251 94.55449493 -19 87 C-10.36773218 76.78771887 -7.2794645 64.1254305 -8 51 C-9.06497152 40.07094797 -13.80820529 30.04875721 -21.93359375 22.6171875 C-37.60622712 10.35164834 -58.02586438 13.39954036 -71.3125 27.25 Z " fill="#F8F7F7" transform="translate(361,132)"/>
<path d="M0 0 C1.44767588 0.00138269 1.44767588 0.00138269 2.92459774 0.00279331 C4.02822659 0.00141865 5.13185543 0.00004398 6.26892757 -0.00137234 C7.49027905 0.00222294 8.71163052 0.00581821 9.96999264 0.00952244 C11.88678829 0.0093034 11.88678829 0.0093034 13.84230709 0.00907993 C17.35661253 0.00879197 20.87088412 0.01468843 24.38518167 0.02165389 C28.05407018 0.02788771 31.72295939 0.02849125 35.39185238 0.0296793 C42.34398097 0.03279253 49.29609392 0.04100581 56.24821562 0.05102879 C64.16102442 0.06219017 72.07383396 0.06770044 79.98664868 0.07272422 C96.26813383 0.08318843 112.54960323 0.10078772 128.83107662 0.12304783 C130.91897009 5.14030186 131.04820305 8.76232417 130.83107662 14.12304783 C130.81012936 14.8644199 130.78918209 15.60579197 130.76760006 16.36962986 C130.33320767 23.59785854 127.94067987 29.30475117 124.89357662 35.81054783 C123.88121452 38.0394224 122.86950919 40.26859537 121.85842037 42.49804783 C121.34779049 43.61179783 120.83716061 44.72554783 120.31105709 45.87304783 C118.13149912 50.65930248 116.04134736 55.4826508 113.95607662 60.31054783 C113.13595303 62.19995275 112.31563521 64.08927338 111.49513912 65.97851658 C108.43887034 73.02600825 105.38497019 80.07452667 102.33107662 87.12304783 C94.63057023 104.89615648 86.92413964 122.66550371 79.09865475 140.38403416 C76.53377938 146.20639218 74.00086478 152.04125555 71.50295162 157.89257908 C71.22675991 158.53930073 70.9505682 159.18602238 70.66600704 159.85234165 C69.31555643 163.01668246 67.96873755 166.18251527 66.62648678 169.35034275 C66.1448608 170.48189793 65.66323483 171.6134531 65.16701412 172.77929783 C64.73952877 173.78798923 64.31204342 174.79668064 63.87160397 175.83593845 C62.83107662 178.12304783 62.83107662 178.12304783 61.83107662 179.12304783 C59.16481632 179.21159944 56.52460548 179.23829456 53.85842037 179.22070408 C53.0607777 179.21928913 52.26313503 179.21787418 51.44132137 179.21641636 C48.88370227 179.21080099 46.32616944 179.19824595 43.76857662 179.18554783 C42.03876017 179.18053481 40.30894236 179.17597156 38.5791235 179.17187595 C34.32974109 179.16082658 30.0804235 179.14355169 25.83107662 179.12304783 C24.47266249 175.04780544 25.64302707 173.59618232 27.34670162 169.68554783 C27.62924297 169.03014011 27.91178432 168.3747324 28.20288754 167.69946384 C29.15284987 165.50309591 30.1168145 163.31317148 31.08107662 161.12304783 C31.75731322 159.56866445 32.43283508 158.01396996 33.10768795 156.45898533 C35.33397399 151.34045426 37.58186984 146.23153844 39.83107662 141.12304783 C40.6265694 139.31318831 41.42197879 137.50329214 42.21730709 135.69336033 C48.83042425 120.65193084 55.47641384 105.62495785 62.17873287 90.62304783 C67.8730847 77.87405274 73.45787167 65.08266748 78.95607662 52.24804783 C79.28676144 51.47622166 79.61744625 50.70439548 79.95815182 49.90918064 C80.89858637 47.71267576 81.8378309 45.51566755 82.77638912 43.31836033 C83.05602505 42.66441288 83.33566097 42.01046543 83.62377071 41.33670139 C85.06861138 37.94800034 86.46882966 34.54565172 87.83107662 31.12304783 C86.81083401 31.12637875 86.81083401 31.12637875 85.76998043 31.12977695 C78.69741497 31.15188287 71.6248593 31.16697668 64.55226803 31.17797947 C61.91196449 31.1830114 59.27166375 31.18983754 56.63136959 31.19848728 C52.8385566 31.21060262 49.04578042 31.21628753 45.25295162 31.22070408 C43.47933254 31.22844601 43.47933254 31.22844601 41.66988277 31.23634434 C40.01862392 31.23645763 40.01862392 31.23645763 38.33400631 31.23657322 C37.36581966 31.23879383 36.39763302 31.24101444 35.40010738 31.24330235 C33.05514787 31.13353645 31.07338254 30.79043816 28.83107662 30.12304783 C28.90008175 31.28090794 28.90008175 31.28090794 28.97048092 32.46215916 C29.16940077 35.95258495 29.34426498 39.44381032 29.51857662 42.93554783 C29.59140865 44.15048923 29.66424068 45.36543064 29.73927975 46.61718845 C29.82145748 48.36225681 29.82145748 48.36225681 29.90529537 50.14257908 C29.96290035 51.21612644 30.02050533 52.28967381 30.07985592 53.39575291 C29.83107662 56.12304783 29.83107662 56.12304783 28.72316647 57.97412205 C25.94838482 59.65904107 23.71223082 59.49473803 20.48342037 59.48632908 C19.23883053 59.48568455 17.99424068 59.48504002 16.711936 59.48437595 C15.4106274 59.46826267 14.10931881 59.45214939 12.76857662 59.43554783 C11.46340084 59.43877048 10.15822506 59.44199314 8.8134985 59.44531345 C-0.90206011 59.3899111 -0.90206011 59.3899111 -3.16892338 57.12304783 C-3.41616154 54.76329136 -3.41616154 54.76329136 -3.4118433 51.77124119 C-3.41491993 50.65345783 -3.41799656 49.53567448 -3.42116642 48.3840189 C-3.4139809 47.17254688 -3.40679539 45.96107487 -3.39939213 44.71289158 C-3.39893391 43.47511463 -3.39847569 42.23733768 -3.39800358 40.96205235 C-3.39420198 37.66946736 -3.38118162 34.37707424 -3.36454105 31.08453465 C-3.35108502 27.72953136 -3.35426522 24.37456153 -3.35447025 21.0195322 C-3.34955506 18.47981666 -3.34372673 15.94010268 -3.33689213 13.40039158 C-3.3357793 12.18689533 -3.33466648 10.97339909 -3.33351994 9.72313023 C-3.32714008 8.60849903 -3.32076023 7.49386784 -3.31418705 6.34545994 C-3.31037525 5.35887897 -3.30656345 4.37229801 -3.30263615 3.35582066 C-3.12451669 0.38153259 -2.97383049 0.16871199 0 0 Z " fill="#F29B06" transform="translate(395.1689233779907,77.87695217132568)"/>
<path d="M0 0 C1.32823367 3.98470102 0.29350798 5.24619943 -1.39453125 9.046875 C-1.65724319 9.64585098 -1.91995514 10.24482697 -2.19062805 10.86195374 C-3.05566593 12.82871033 -3.93404655 14.78920346 -4.8125 16.75 C-5.41681136 18.11765956 -6.02015622 19.48574657 -6.62255859 20.85424805 C-7.8381714 23.61299343 -9.05846061 26.36959068 -10.28271484 29.12451172 C-12.59752217 34.33909977 -14.86024227 39.57603106 -17.125 44.8125 C-20.96006604 53.64376397 -24.842642 62.45371315 -28.73242188 71.26098633 C-31.29729724 77.08334435 -33.83021184 82.91820772 -36.328125 88.76953125 C-36.74241257 89.73961372 -36.74241257 89.73961372 -37.16506958 90.72929382 C-38.51552019 93.89363463 -39.86233908 97.05946744 -41.20458984 100.22729492 C-41.68621582 101.3588501 -42.1678418 102.49040527 -42.6640625 103.65625 C-43.09154785 104.66494141 -43.5190332 105.67363281 -43.95947266 106.71289062 C-45 109 -45 109 -46 110 C-48.6662603 110.08855161 -51.30647114 110.11524673 -53.97265625 110.09765625 C-54.77029892 110.0962413 -55.56794159 110.09482635 -56.38975525 110.09336853 C-58.94737435 110.08775316 -61.50490718 110.07519812 -64.0625 110.0625 C-65.79231645 110.05748698 -67.52213426 110.05292373 -69.25195312 110.04882812 C-73.50133553 110.03777875 -77.75065312 110.02050386 -82 110 C-83.35841413 105.92475761 -82.18804956 104.47313449 -80.484375 100.5625 C-80.06035904 99.57891258 -80.06035904 99.57891258 -79.6277771 98.57545471 C-78.67795563 96.37940533 -77.71413992 94.18979685 -76.75 92 C-76.07596272 90.4507427 -75.40263775 88.90117532 -74.72998047 87.35131836 C-72.89267606 83.12728101 -71.0415119 78.90946366 -69.18566895 74.69354248 C-67.97747748 71.94883448 -66.77129933 69.20324831 -65.56542969 66.45751953 C-57.13239783 47.26493703 -48.62411603 28.10751377 -40 9 C-38.74759685 12.75720944 -39.5642032 13.41050801 -41 17 C-41.17489413 18.35072083 -41.31896662 19.70567114 -41.4375 21.0625 C-42.02487495 25.17412464 -42.62495686 25.87984528 -45 29 C-45.74879534 30.78804867 -46.43424998 32.60362039 -47.0625 34.4375 C-48.01855587 37.19815932 -48.969423 39.92635218 -50.08984375 42.625 C-51.15563611 45.14007645 -51.15563611 45.14007645 -51.5 48.5625 C-51.93814093 51.57471887 -52.45856577 53.43094295 -54 56 C-54.66 56 -55.32 56 -56 56 C-56 56.99 -56 57.98 -56 59 C-56.66 59 -57.32 59 -58 59 C-58.103125 59.556875 -58.20625 60.11375 -58.3125 60.6875 C-59 63 -59 63 -60.4375 65.1875 C-61.89925938 67.81866689 -62.42718597 69.59742135 -63 72.5 C-63.73599902 76.17386175 -64.66423128 78.98296541 -67 82 C-67.66 82 -68.32 82 -69 82 C-69.33 82.99 -69.66 83.98 -70 85 C-70.66 85 -71.32 85 -72 85 C-72.15855469 85.60585937 -72.31710937 86.21171875 -72.48046875 86.8359375 C-74.0705157 92.54605084 -76.13984301 97.63370362 -78.9140625 102.87109375 C-80.11352758 105.09162167 -80.11352758 105.09162167 -81 108 C-70.11 107.67 -59.22 107.34 -48 107 C-47.67 105.35 -47.34 103.7 -47 102 C-46.53068249 100.67621855 -46.03169117 99.3624849 -45.5 98.0625 C-44.44386522 95.4020462 -43.94778536 93.53006822 -43.625 90.625 C-43.41875 89.75875 -43.2125 88.8925 -43 88 C-42.1853125 87.74863281 -41.370625 87.49726563 -40.53125 87.23828125 C-39.6959375 86.82964844 -38.860625 86.42101562 -38 86 C-37.06580962 83.00765268 -37.06580962 83.00765268 -36.875 79.5625 C-36.31050889 73.40128608 -36.31050889 73.40128608 -34.5703125 71.15234375 C-33 70 -33 70 -31 69 C-31 67.02 -31 65.04 -31 63 C-30.01 63 -29.02 63 -28 63 C-27.814375 61.7625 -27.814375 61.7625 -27.625 60.5 C-27.41875 59.345 -27.2125 58.19 -27 57 C-26.88914062 56.36191406 -26.77828125 55.72382813 -26.6640625 55.06640625 C-25.7016558 50.40872097 -24.07011806 47.39503493 -21.1640625 43.65625 C-19.50256379 41.29223842 -18.83612411 38.74726493 -18 36 C-17 34.33333333 -16 32.66666667 -15 31 C-14.27954236 29.0187415 -13.61998741 27.01495907 -13 25 C-11.36034515 19.6859379 -9.50476448 14.77551699 -6.90234375 9.85546875 C-5.84111468 7.80211477 -5.84111468 7.80211477 -5 4.625 C-4 2 -4 2 -1.875 0.625 C-1.25625 0.41875 -0.6375 0.2125 0 0 Z " fill="#E09B2C" transform="translate(503,147)"/>
<path d="M0 0 C1.44767588 0.00138269 1.44767588 0.00138269 2.92459774 0.00279331 C4.02822659 0.00141865 5.13185543 0.00004398 6.26892757 -0.00137234 C7.49027905 0.00222294 8.71163052 0.00581821 9.96999264 0.00952244 C11.88678829 0.0093034 11.88678829 0.0093034 13.84230709 0.00907993 C17.35661253 0.00879197 20.87088412 0.01468843 24.38518167 0.02165389 C28.05407018 0.02788771 31.72295939 0.02849125 35.39185238 0.0296793 C42.34398097 0.03279253 49.29609392 0.04100581 56.24821562 0.05102879 C64.16102442 0.06219017 72.07383396 0.06770044 79.98664868 0.07272422 C96.26813383 0.08318843 112.54960323 0.10078772 128.83107662 0.12304783 C130.91904904 5.14049159 131.04775934 8.76219467 130.83107662 14.12304783 C130.81085445 14.86224461 130.79063229 15.60144138 130.76979733 16.36303806 C130.33623445 23.65073116 127.89515643 29.43583165 124.83107662 35.99804783 C124.3421191 37.07562351 123.85316158 38.1531992 123.34938717 39.26342869 C122.34579747 41.47275717 121.33627816 43.67940181 120.32082272 45.88330173 C118.46720755 49.91435275 116.65320596 53.96248829 114.84084225 58.01220798 C113.1802634 61.72006655 111.50600892 65.42165423 109.83107662 69.12304783 C108.83107662 66.12304783 108.83107662 66.12304783 109.74513912 64.24414158 C110.1034985 63.54418064 110.46185787 62.8442197 110.83107662 62.12304783 C111.1149808 59.62874682 111.2067261 57.16644732 111.29201412 54.65820408 C111.99524087 51.35100003 113.71603846 49.7416665 115.83107662 47.12304783 C117.36604392 43.56990198 117.36604392 43.56990198 118.58107662 39.81054783 C118.80150631 39.16537205 119.021936 38.52019627 119.24904537 37.8554697 C119.78550647 36.28107299 120.30959019 34.70246779 120.83107662 33.12304783 C122.31607662 33.61804783 122.31607662 33.61804783 123.83107662 34.12304783 C127.85803448 22.18632041 127.85803448 22.18632041 127.83107662 1.12304783 C85.26107662 1.12304783 42.69107662 1.12304783 -1.16892338 1.12304783 C-1.16892338 19.60304783 -1.16892338 38.08304783 -1.16892338 57.12304783 C8.40107662 57.12304783 17.97107662 57.12304783 27.83107662 57.12304783 C27.83107662 47.88304783 27.83107662 38.64304783 27.83107662 29.12304783 C48.29107662 29.12304783 68.75107662 29.12304783 89.83107662 29.12304783 C87.67102417 38.84328384 87.67102417 38.84328384 84.95607662 43.92382908 C83.66775599 46.44231699 82.59230794 49.00582775 81.51857662 51.62304783 C79.4255352 56.69964831 77.3090084 61.76444412 75.14357662 66.81054783 C74.84604488 67.51824314 74.54851315 68.22593845 74.24196529 68.95507908 C72.06020808 74.0084821 72.06020808 74.0084821 69.83107662 75.12304783 C72.39834916 66.76790996 75.88143954 58.86068399 79.39357662 50.87304783 C80.28106034 48.84547958 81.16744296 46.81743479 82.05322933 44.78912449 C82.8530132 42.95917204 83.65556251 41.13042895 84.45827389 39.30175877 C85.62901741 36.5909139 86.74108046 33.86691346 87.83107662 31.12304783 C86.81083401 31.12637875 86.81083401 31.12637875 85.76998043 31.12977695 C78.69741497 31.15188287 71.6248593 31.16697668 64.55226803 31.17797947 C61.91196449 31.1830114 59.27166375 31.18983754 56.63136959 31.19848728 C52.8385566 31.21060262 49.04578042 31.21628753 45.25295162 31.22070408 C43.47933254 31.22844601 43.47933254 31.22844601 41.66988277 31.23634434 C40.01862392 31.23645763 40.01862392 31.23645763 38.33400631 31.23657322 C37.36581966 31.23879383 36.39763302 31.24101444 35.40010738 31.24330235 C33.05514787 31.13353645 31.07338254 30.79043816 28.83107662 30.12304783 C28.90008175 31.28090794 28.90008175 31.28090794 28.97048092 32.46215916 C29.16940077 35.95258495 29.34426498 39.44381032 29.51857662 42.93554783 C29.59140865 44.15048923 29.66424068 45.36543064 29.73927975 46.61718845 C29.82145748 48.36225681 29.82145748 48.36225681 29.90529537 50.14257908 C29.96290035 51.21612644 30.02050533 52.28967381 30.07985592 53.39575291 C29.83107662 56.12304783 29.83107662 56.12304783 28.72316647 57.97412205 C25.94838482 59.65904107 23.71223082 59.49473803 20.48342037 59.48632908 C19.23883053 59.48568455 17.99424068 59.48504002 16.711936 59.48437595 C15.4106274 59.46826267 14.10931881 59.45214939 12.76857662 59.43554783 C11.46340084 59.43877048 10.15822506 59.44199314 8.8134985 59.44531345 C-0.90206011 59.3899111 -0.90206011 59.3899111 -3.16892338 57.12304783 C-3.41616154 54.76329136 -3.41616154 54.76329136 -3.4118433 51.77124119 C-3.41491993 50.65345783 -3.41799656 49.53567448 -3.42116642 48.3840189 C-3.4139809 47.17254688 -3.40679539 45.96107487 -3.39939213 44.71289158 C-3.39893391 43.47511463 -3.39847569 42.23733768 -3.39800358 40.96205235 C-3.39420198 37.66946736 -3.38118162 34.37707424 -3.36454105 31.08453465 C-3.35108502 27.72953136 -3.35426522 24.37456153 -3.35447025 21.0195322 C-3.34955506 18.47981666 -3.34372673 15.94010268 -3.33689213 13.40039158 C-3.3357793 12.18689533 -3.33466648 10.97339909 -3.33351994 9.72313023 C-3.32714008 8.60849903 -3.32076023 7.49386784 -3.31418705 6.34545994 C-3.31037525 5.35887897 -3.30656345 4.37229801 -3.30263615 3.35582066 C-3.12451669 0.38153259 -2.97383049 0.16871199 0 0 Z " fill="#AD7935" transform="translate(395.1689233779907,77.87695217132568)"/>
<path d="M0 0 C1.2463623 0.01047363 2.49272461 0.02094727 3.77685547 0.03173828 C4.77143265 0.03598312 4.77143265 0.03598312 5.78610229 0.04031372 C7.9055988 0.05151643 10.02467401 0.07662027 12.14404297 0.10205078 C13.58023479 0.11208051 15.01643322 0.12120637 16.45263672 0.12939453 C19.97490925 0.15145578 23.496935 0.18598585 27.01904297 0.22705078 C28.49954902 3.18806288 28.145064 5.83677773 28.14602661 9.14247131 C28.1475866 9.86217981 28.14914659 10.58188831 28.15075386 11.32340616 C28.15475848 13.74711877 28.15157629 16.17076929 28.1484375 18.59448242 C28.14979177 20.32712338 28.15157184 22.05976405 28.15374756 23.79240417 C28.15831853 28.5070857 28.15653379 33.22174543 28.15336847 37.93642735 C28.15084355 42.86073063 28.15318274 47.78503198 28.15475464 52.70933533 C28.15657577 60.97899716 28.15417131 69.24865007 28.14941406 77.51831055 C28.14396975 87.09317523 28.14573555 96.66801862 28.15124047 106.24288279 C28.15577105 114.45009133 28.15642247 122.65729346 28.1538018 130.86450285 C28.15223895 135.77232839 28.15204551 140.68014392 28.15533829 145.58796883 C28.15821626 150.19994801 28.15624268 154.81189962 28.15044403 159.42387581 C28.14911611 161.12147984 28.14951108 162.81908617 28.1517067 164.5166893 C28.15441692 166.82402938 28.15103869 169.13127962 28.14602661 171.43861389 C28.14564959 172.73297898 28.14527256 174.02734407 28.14488411 175.36093235 C28.01904297 178.22705078 28.01904297 178.22705078 27.01904297 179.22705078 C24.73956505 179.32726008 22.45697162 179.35786381 20.17529297 179.35986328 C19.14885681 179.36129837 19.14885681 179.36129837 18.10168457 179.36276245 C16.6524242 179.36344408 15.20316079 179.36159101 13.75390625 179.35742188 C11.52841369 179.3520733 9.30312296 179.35736738 7.07763672 179.36376953 C5.67268835 179.36310875 4.26774012 179.36182758 2.86279297 179.35986328 C1.57566406 179.35873535 0.28853516 179.35760742 -1.03759766 179.35644531 C-3.98095703 179.22705078 -3.98095703 179.22705078 -4.98095703 178.22705078 C-5.07660826 176.75956118 -5.10284012 175.28748195 -5.10121155 173.81687927 C-5.10258621 172.8647052 -5.10396088 171.91253113 -5.1053772 170.9315033 C-5.10178192 169.87846512 -5.09818665 168.82542694 -5.09448242 167.74047852 C-5.09462845 166.63817902 -5.09477448 165.53587952 -5.09492493 164.400177 C-5.09422525 160.73697986 -5.08643027 157.07383285 -5.07861328 153.41064453 C-5.0767493 150.8785861 -5.0753253 148.34652731 -5.07432556 145.81446838 C-5.07089049 139.81856829 -5.06299972 133.82268989 -5.05297607 127.8267985 C-5.04181381 121.0022402 -5.0363042 114.17768106 -5.03128064 107.35311592 C-5.02081707 93.31108414 -5.00321833 79.26906845 -4.98095703 65.22705078 C-5.64095703 65.22705078 -6.30095703 65.22705078 -6.98095703 65.22705078 C-7.31095703 66.21705078 -7.64095703 67.20705078 -7.98095703 68.22705078 C-8.31095703 67.56705078 -8.64095703 66.90705078 -8.98095703 66.22705078 C-7.66845703 63.60205078 -7.66845703 63.60205078 -5.98095703 61.22705078 C-5.32095703 61.22705078 -4.66095703 61.22705078 -3.98095703 61.22705078 C-3.98095703 99.50705078 -3.98095703 137.78705078 -3.98095703 177.22705078 C5.91904297 177.22705078 15.81904297 177.22705078 26.01904297 177.22705078 C26.01904297 119.14705078 26.01904297 61.06705078 26.01904297 1.22705078 C16.77904297 1.55705078 7.53904297 1.88705078 -1.98095703 2.22705078 C-7.89716285 9.30777926 -7.89716285 9.30777926 -10.98095703 17.22705078 C-11.31095703 16.56705078 -11.64095703 15.90705078 -11.98095703 15.22705078 C-10.94955926 12.98102698 -9.87372416 10.87648269 -8.66845703 8.72705078 C-8.34683594 8.13279297 -8.02521484 7.53853516 -7.69384766 6.92626953 C-4.05657775 0.30897767 -4.05657775 0.30897767 0 0 Z " fill="#C0BDC0" transform="translate(192.98095703125,77.77294921875)"/>
<path d="M0 0 C42.57 0 85.14 0 129 0 C129 23 129 23 125 33 C124 30 124 30 127 22 C127 15.4 127 8.8 127 2 C85.75 2 44.5 2 2 2 C2 19.49 2 36.98 2 55 C10.25 55 18.5 55 27 55 C26.96519531 53.08574219 26.93039062 51.17148438 26.89453125 49.19921875 C26.86639757 46.69532125 26.83909697 44.19141429 26.8125 41.6875 C26.78736328 40.42486328 26.76222656 39.16222656 26.73632812 37.86132812 C26.72666016 36.65283203 26.71699219 35.44433594 26.70703125 34.19921875 C26.6913208 33.08377686 26.67561035 31.96833496 26.65942383 30.8190918 C27 28 27 28 28.15002441 26.34509277 C30.78585896 24.42861235 32.70081568 24.63938649 35.94018555 24.65942383 C37.16122482 24.65965042 38.3822641 24.65987701 39.64030457 24.66011047 C41.61852959 24.68333626 41.61852959 24.68333626 43.63671875 24.70703125 C45.00006138 24.71262757 46.36341004 24.7168975 47.72676086 24.71989441 C51.31243592 24.73134051 54.89774554 24.76080514 58.48327637 24.79400635 C62.1430975 24.82471261 65.80297777 24.8384009 69.46289062 24.85351562 C76.64209356 24.88567551 83.82099554 24.93686847 91 25 C91 25.99 91 26.98 91 28 C70.54 28 50.08 28 29 28 C29 37.24 29 46.48 29 56 C19.43 56 9.86 56 0 56 C0 37.52 0 19.04 0 0 Z " fill="#E39C36" transform="translate(394,79)"/>
<path d="M0 0 C1.32823367 3.98470102 0.29350798 5.24619943 -1.39453125 9.046875 C-1.65724319 9.64585098 -1.91995514 10.24482697 -2.19062805 10.86195374 C-3.05566593 12.82871033 -3.93404655 14.78920346 -4.8125 16.75 C-5.41681136 18.11765956 -6.02015622 19.48574657 -6.62255859 20.85424805 C-7.8381714 23.61299343 -9.05846061 26.36959068 -10.28271484 29.12451172 C-12.59752275 34.33910108 -14.86011472 39.57608523 -17.125 44.8125 C-24.99131228 62.9154213 -32.96437729 80.97165449 -41 99 C-41.66 99 -42.32 99 -43 99 C-43.103125 99.639375 -43.20625 100.27875 -43.3125 100.9375 C-43.539375 101.618125 -43.76625 102.29875 -44 103 C-45.485 103.495 -45.485 103.495 -47 104 C-46.53458852 101.81652701 -46.0563443 99.63730887 -45.55859375 97.4609375 C-45.21569448 95.95026238 -44.8910454 94.43512859 -44.59765625 92.9140625 C-44.1875 91.0625 -44.1875 91.0625 -43 88 C-41.76056641 87.60941406 -41.76056641 87.60941406 -40.49609375 87.2109375 C-39.26052734 86.61152344 -39.26052734 86.61152344 -38 86 C-37.06580962 83.00765268 -37.06580962 83.00765268 -36.875 79.5625 C-36.31050889 73.40128608 -36.31050889 73.40128608 -34.5703125 71.15234375 C-33 70 -33 70 -31 69 C-31 67.02 -31 65.04 -31 63 C-30.01 63 -29.02 63 -28 63 C-27.87625 62.175 -27.7525 61.35 -27.625 60.5 C-27.41875 59.345 -27.2125 58.19 -27 57 C-26.88914062 56.36191406 -26.77828125 55.72382813 -26.6640625 55.06640625 C-25.7016558 50.40872097 -24.07011806 47.39503493 -21.1640625 43.65625 C-19.50256379 41.29223842 -18.83612411 38.74726493 -18 36 C-17 34.33333333 -16 32.66666667 -15 31 C-14.27954236 29.0187415 -13.61998741 27.01495907 -13 25 C-11.36034515 19.6859379 -9.50476448 14.77551699 -6.90234375 9.85546875 C-5.84111468 7.80211477 -5.84111468 7.80211477 -5 4.625 C-4 2 -4 2 -1.875 0.625 C-1.25625 0.41875 -0.6375 0.2125 0 0 Z " fill="#C7832D" transform="translate(503,147)"/>
<path d="M0 0 C20.46 0 40.92 0 62 0 C59.83994755 9.72023601 59.83994755 9.72023601 57.125 14.80078125 C55.83667937 17.31926916 54.76123131 19.88277992 53.6875 22.5 C51.59445857 27.57660048 49.47793178 32.64139629 47.3125 37.6875 C46.86620239 38.74904297 46.86620239 38.74904297 46.41088867 39.83203125 C44.22913146 44.88543427 44.22913146 44.88543427 42 46 C44.56727254 37.64486213 48.05036292 29.73763616 51.5625 21.75 C52.44998372 19.72243176 53.33636634 17.69438696 54.22215271 15.66607666 C55.02193658 13.83612421 55.82448589 12.00738112 56.62719727 10.17871094 C57.79794079 7.46786607 58.91000384 4.74386563 60 2 C58.97975739 2.00333092 58.97975739 2.00333092 57.93890381 2.00672913 C50.86633834 2.02883504 43.79378268 2.04392885 36.72119141 2.05493164 C34.08088787 2.05996357 31.44058713 2.06678971 28.80029297 2.07543945 C25.00747998 2.08755479 21.2147038 2.0932397 17.421875 2.09765625 C15.64825592 2.10539818 15.64825592 2.10539818 13.83880615 2.11329651 C12.1875473 2.11340981 12.1875473 2.11340981 10.50292969 2.11352539 C9.53474304 2.115746 8.5665564 2.11796661 7.56903076 2.12025452 C5.22407125 2.01048862 3.24230591 1.66739034 1 1 C1.04600342 1.77190674 1.09200684 2.54381348 1.1394043 3.33911133 C1.33832414 6.82953712 1.51318835 10.32076249 1.6875 13.8125 C1.76033203 15.02744141 1.83316406 16.24238281 1.90820312 17.49414062 C1.96298828 18.65751953 2.01777344 19.82089844 2.07421875 21.01953125 C2.16062622 22.62985229 2.16062622 22.62985229 2.2487793 24.27270508 C2 27 2 27 0.89648438 28.85546875 C-1.90520182 30.54629069 -4.16579484 30.33711591 -7.41796875 30.29296875 C-8.67158203 30.28330078 -9.92519531 30.27363281 -11.21679688 30.26367188 C-13.18229492 30.2259668 -13.18229492 30.2259668 -15.1875 30.1875 C-16.52277163 30.17244967 -17.85805937 30.15876187 -19.19335938 30.14648438 C-22.46264576 30.11107694 -25.73112093 30.0616889 -29 30 C-29 29.67 -29 29.34 -29 29 C-19.43 28.67 -9.86 28.34 0 28 C0 18.76 0 9.52 0 0 Z " fill="#9B6826" transform="translate(423,107)"/>
<path d="M0 0 C1.36151579 4.08454736 0.156069 5.56600017 -1.5703125 9.46875 C-1.84841766 10.1042981 -2.12652283 10.73984619 -2.41305542 11.39465332 C-3.30804213 13.43386986 -4.2163429 15.46684361 -5.125 17.5 C-5.71441167 18.8381588 -6.3029626 20.17669708 -6.890625 21.515625 C-9.42266465 27.2699547 -11.99604718 33.00437675 -14.6171875 38.71875 C-17.19335992 44.42856166 -19.59074106 50.21777855 -22 56 C-11.11 55.67 -0.22 55.34 11 55 C11 54.01 11 53.02 11 52 C11.61875 51.9175 12.2375 51.835 12.875 51.75 C15.18437567 51.18741541 15.18437567 51.18741541 16.25 48.9375 C16.4975 48.298125 16.745 47.65875 17 47 C16.34764225 51.43603269 15.15544109 53.68911782 13 58 C1.12 58 -10.76 58 -23 58 C-24.36598105 53.90205686 -22.7986363 51.50772806 -21.1328125 47.75390625 C-20.8223851 47.03438782 -20.5119577 46.31486938 -20.19212341 45.57354736 C-19.17908935 43.23234803 -18.15233487 40.89745495 -17.125 38.5625 C-16.4315012 36.96800027 -15.73871193 35.37319176 -15.04663086 33.77807617 C-10.13127259 22.47433418 -5.13629164 11.20518907 0 0 Z " fill="#A96F2C" transform="translate(444,199)"/>
<path d="M0 0 C1.21386936 3.64160808 0.6674695 4.33165469 -0.9375 7.6875 C-1.31777344 8.49574219 -1.69804687 9.30398437 -2.08984375 10.13671875 C-2.39019531 10.75160156 -2.69054687 11.36648437 -3 12 C-3.66 12 -4.32 12 -5 12 C-5.27021973 12.84908936 -5.54043945 13.69817871 -5.81884766 14.57299805 C-7.02673517 18.07756957 -8.41854653 21.4337197 -9.8984375 24.83203125 C-10.31278549 25.78610115 -10.31278549 25.78610115 -10.73550415 26.75944519 C-11.61295959 28.77817399 -12.49395616 30.79533514 -13.375 32.8125 C-13.95855876 34.15419885 -14.54189396 35.49599496 -15.125 36.83789062 C-18.05376242 43.57180421 -21.00529485 50.29510597 -24 57 C-25.13864162 53.58407513 -24.84292788 52.78557691 -23.6875 49.5 C-23.42324219 48.7265625 -23.15898437 47.953125 -22.88671875 47.15625 C-22 45 -22 45 -20 42 C-19.690625 41.05125 -19.38125 40.1025 -19.0625 39.125 C-18.02401001 36.07061767 -16.65179042 33.75298403 -15 31 C-14.27954236 29.0187415 -13.61998741 27.01495907 -13 25 C-11.36034515 19.6859379 -9.50476448 14.77551699 -6.90234375 9.85546875 C-5.84111468 7.80211477 -5.84111468 7.80211477 -5 4.625 C-4 2 -4 2 -1.875 0.625 C-1.25625 0.41875 -0.6375 0.2125 0 0 Z " fill="#EB9E30" transform="translate(503,147)"/>
<path d="M0 0 C1.22111481 0.00007553 2.44222961 0.00015106 3.7003479 0.00022888 C5.03769979 0.00533587 6.37505127 0.01055187 7.71240234 0.01586914 C9.07717843 0.01773399 10.44195518 0.01915758 11.80673218 0.02015686 C15.40049077 0.02397676 18.99420902 0.03380256 22.58795166 0.04486084 C26.25442967 0.05508628 29.92091419 0.05965691 33.58740234 0.06469727 C40.78273325 0.07542529 47.97803089 0.0924954 55.17333984 0.11352539 C55.17333984 1.10352539 55.17333984 2.09352539 55.17333984 3.11352539 C34.71333984 3.11352539 14.25333984 3.11352539 -6.82666016 3.11352539 C-7.48666016 4.43352539 -8.14666016 5.75352539 -8.82666016 7.11352539 C-8.45166016 4.17602539 -8.45166016 4.17602539 -7.82666016 1.11352539 C-5.12376708 -0.23792115 -3.02596209 -0.00622626 0 0 Z " fill="#ECA32F" transform="translate(429.82666015625,103.886474609375)"/>
<path d="M0 0 C1.25240315 3.75720944 0.4357968 4.41050801 -1 8 C-1.17489413 9.35072083 -1.31896662 10.70567114 -1.4375 12.0625 C-2.02487495 16.17412464 -2.62495686 16.87984528 -5 20 C-5.74879534 21.78804867 -6.43424998 23.60362039 -7.0625 25.4375 C-8.29524335 28.99710831 -9.57570032 32.51204833 -11 36 C-11.66 35.34 -12.32 34.68 -13 34 C-14.32 36.97 -15.64 39.94 -17 43 C-18.38168888 38.85493336 -16.69386161 36.47903158 -14.921875 32.734375 C-14.4310141 31.66694061 -14.4310141 31.66694061 -13.93023682 30.57794189 C-12.87927953 28.29761232 -11.81501425 26.0237934 -10.75 23.75 C-9.70234004 21.48915849 -8.65739677 19.22707514 -7.61260986 16.96490479 C-6.96158668 15.55801821 -6.30835514 14.15215064 -5.65252686 12.74749756 C-3.68618312 8.53054616 -1.81276168 4.28534084 0 0 Z " fill="#BA8229" transform="translate(463,156)"/>
<path d="M0 0 C2.3084818 6.78506475 -2.05252553 14.84874893 -5 21 C-5.66 21.66 -6.32 22.32 -7 23 C-10.2049143 29.02056775 -12.19475054 35.44913264 -14 42 C-14.99 42 -15.98 42 -17 42 C-16.57620166 39.89303095 -16.1354597 37.78946473 -15.6875 35.6875 C-15.44386719 34.51574219 -15.20023437 33.34398437 -14.94921875 32.13671875 C-14 29 -14 29 -12.56176758 27.56665039 C-10.75066577 25.74988624 -10.02930926 24.16514274 -9.0625 21.796875 C-8.72476562 20.98089844 -8.38703125 20.16492188 -8.0390625 19.32421875 C-7.69617188 18.47472656 -7.35328125 17.62523437 -7 16.75 C-6.31262395 15.07807404 -5.62512588 13.40619823 -4.9375 11.734375 C-4.61136719 10.93451172 -4.28523438 10.13464844 -3.94921875 9.31054688 C-2.66784126 6.19147369 -1.33837546 3.09499325 0 0 Z " fill="#D6912C" transform="translate(478,124)"/>
<path d="M0 0 C0.66 0.33 1.32 0.66 2 1 C1.85341369 9.35541965 -1.45166348 15.83122363 -5.09228516 23.15185547 C-6.43527392 25.88623549 -7.6867202 28.65998039 -8.9375 31.4375 C-9.33839844 32.32308594 -9.73929687 33.20867187 -10.15234375 34.12109375 C-10.57193359 35.05115234 -10.57193359 35.05115234 -11 36 C-12 33 -12 33 -11.0859375 31.12109375 C-10.72757812 30.42113281 -10.36921875 29.72117188 -10 29 C-9.71609582 26.50569899 -9.62435052 24.04339949 -9.5390625 21.53515625 C-8.83583575 18.2279522 -7.11503816 16.61861867 -5 14 C-3.4650327 10.44685415 -3.4650327 10.44685415 -2.25 6.6875 C-2.02957031 6.04232422 -1.80914063 5.39714844 -1.58203125 4.73242188 C-1.04557015 3.15802516 -0.52148643 1.57941996 0 0 Z " fill="#C78734" transform="translate(516,111)"/>
<path d="M0 0 C0.66 0 1.32 0 2 0 C2 27.06 2 54.12 2 82 C1.67 82 1.34 82 1 82 C1 56.26 1 30.52 1 4 C0.34 4 -0.32 4 -1 4 C-1.33 4.99 -1.66 5.98 -2 7 C-2.33 6.34 -2.66 5.68 -3 5 C-1.6875 2.375 -1.6875 2.375 0 0 Z " fill="#C5C6CB" transform="translate(187,139)"/>
<path d="M0 0 C0.66 0 1.32 0 2 0 C2.8638129 1.45264038 3.71580454 2.9123163 4.5625 4.375 C5.27599609 5.59316406 5.27599609 5.59316406 6.00390625 6.8359375 C6.33261719 7.55007812 6.66132812 8.26421875 7 9 C6.67 9.66 6.34 10.32 6 11 C4.68 9.02 3.36 7.04 2 5 C1.67 25.79 1.34 46.58 1 68 C0.67 68 0.34 68 0 68 C0 45.56 0 23.12 0 0 Z " fill="#D9D8DC" transform="translate(63,139)"/>
<path d="M0 0 C1.0516399 3.15491969 0.98032423 4.03355588 0.1875 7.125 C0.01605469 7.82882813 -0.15539062 8.53265625 -0.33203125 9.2578125 C-1 11 -1 11 -3 12 C-3.66 15.3 -4.32 18.6 -5 22 C2.92 22 10.84 22 19 22 C19 22.33 19 22.66 19 23 C9.76 23 0.52 23 -9 23 C-8.18892751 18.94463757 -7.34858517 16.27064378 -5.625 12.625 C-3.6731435 8.44406681 -1.79464383 4.25047224 0 0 Z " fill="#E29C33" transform="translate(431,232)"/>
<path d="M0 0 C0.66 0.33 1.32 0.66 2 1 C0.515 4.96 0.515 4.96 -1 9 C11.79813028 9.82327468 11.79813028 9.82327468 24 7 C24 7.66 24 8.32 24 9 C24.99 9 25.98 9 27 9 C27 9.66 27 10.32 27 11 C17.43 11 7.86 11 -2 11 C-1 1 -1 1 0 0 Z " fill="#E99A14" transform="translate(428,243)"/>
<path d="M0 0 C1.32 0.33 2.64 0.66 4 1 C4.05929687 1.90621094 4.11859375 2.81242188 4.1796875 3.74609375 C5.16119973 10.63922295 8.73919909 16.9992484 11.58203125 23.28320312 C12.03191406 24.31509766 12.48179687 25.34699219 12.9453125 26.41015625 C13.36312988 27.33965088 13.78094727 28.26914551 14.21142578 29.22680664 C15.17209663 32.60521537 14.94751633 34.63152559 14 38 C12.4375 40.375 12.4375 40.375 11 42 C11.14107178 41.38068604 11.28214355 40.76137207 11.42749023 40.12329102 C12.95169256 30.90845197 9.77157302 24.1109519 6.0625 15.9375 C5.19460199 13.96566074 4.33346978 11.99100473 3.47447205 10.01527405 C2.69998013 8.24344983 1.90913559 6.47880017 1.11743164 4.71459961 C0 2 0 2 0 0 Z " fill="#AEADB3" transform="translate(570,220)"/>
<path d="M0 0 C11.22 0.33 22.44 0.66 34 1 C33.67 1.66 33.34 2.32 33 3 C22.44 2.67 11.88 2.34 1 2 C3.0092092 6.80580577 3.0092092 6.80580577 5.03930664 11.6027832 C7.11111111 16.66666667 7.11111111 16.66666667 6 20 C4.79816525 17.42249905 3.61343114 14.83928838 2.4375 12.25 C2.09525391 11.52039063 1.75300781 10.79078125 1.40039062 10.0390625 C1.08134766 9.33007812 0.76230469 8.62109375 0.43359375 7.890625 C-0.01415405 6.91657715 -0.01415405 6.91657715 -0.47094727 5.92285156 C-1 4 -1 4 0 0 Z " fill="#AFAEB2" transform="translate(530,119)"/>
<path d="M0 0 C1.18598164 3.55794492 0.71542389 5.35133818 0 9 C-0.11472656 9.91394531 -0.22945313 10.82789063 -0.34765625 11.76953125 C-1.09603067 15.47555306 -2.42929447 18.46959272 -4.0625 21.875 C-4.61035156 23.02742188 -5.15820312 24.17984375 -5.72265625 25.3671875 C-6.14417969 26.23601562 -6.56570313 27.10484375 -7 28 C-8.17394879 24.47815362 -7.66234423 22.60609634 -7 19 C-7 17.68 -7 16.36 -7 15 C-6.01 15 -5.02 15 -4 15 C-3.814375 13.7625 -3.814375 13.7625 -3.625 12.5 C-1.69565217 1.69565217 -1.69565217 1.69565217 0 0 Z " fill="#D58D27" transform="translate(479,195)"/>
<path d="M0 0 C1.21386936 3.64160808 0.6674695 4.33165469 -0.9375 7.6875 C-1.31777344 8.49574219 -1.69804687 9.30398437 -2.08984375 10.13671875 C-2.39019531 10.75160156 -2.69054687 11.36648437 -3 12 C-3.66 12 -4.32 12 -5 12 C-5 12.66 -5 13.32 -5 14 C-7 15.625 -7 15.625 -9 17 C-8.36887699 13.44913617 -7.46782404 10.18419001 -6.1875 6.8125 C-5.87167969 5.95269531 -5.55585938 5.09289062 -5.23046875 4.20703125 C-3.80479051 1.64986235 -2.69849979 1.01264457 0 0 Z " fill="#D78922" transform="translate(503,147)"/>
<path d="M0 0 C3.27627263 6.39207477 3.62259905 12.00966787 2 19 C0.00018537 24.47338559 -2.50087305 29.74074067 -5 35 C-6.30097348 31.09707957 -5.33704496 30.17001903 -3.625 26.5 C-0.09402549 17.86329503 -0.10721181 9.22996242 0 0 Z " fill="#B27232" transform="translate(523,83)"/>
<path d="M0 0 C2.03125 0.05078125 2.03125 0.05078125 4.5 0.3125 C5.3146875 0.39113281 6.129375 0.46976562 6.96875 0.55078125 C7.97421875 0.77314453 7.97421875 0.77314453 9 1 C9.33 1.66 9.66 2.32 10 3 C0.1 3 -9.8 3 -20 3 C-20 2.34 -20 1.68 -20 1 C-19.42967041 1.00523682 -18.85934082 1.01047363 -18.27172852 1.01586914 C-15.70199677 1.03658221 -13.13228253 1.0496419 -10.5625 1.0625 C-9.66466797 1.07087891 -8.76683594 1.07925781 -7.84179688 1.08789062 C-6.56079102 1.09272461 -6.56079102 1.09272461 -5.25390625 1.09765625 C-4.46314697 1.10289307 -3.6723877 1.10812988 -2.85766602 1.11352539 C-0.98407311 1.20495909 -0.98407311 1.20495909 0 0 Z " fill="#EE9A12" transform="translate(469,102)"/>
<path d="M0 0 C3.45501463 4.30891792 5.22281204 8.96919025 7.25 14.0625 C7.81460938 15.42858398 7.81460938 15.42858398 8.390625 16.82226562 C8.74125 17.69689453 9.091875 18.57152344 9.453125 19.47265625 C9.77442383 20.26937744 10.09572266 21.06609863 10.42675781 21.88696289 C11 24 11 24 10 27 C9.67 25.68 9.34 24.36 9 23 C8.34 23 7.68 23 7 23 C6.67 23.66 6.34 24.32 6 25 C6.061875 23.99324219 6.12375 22.98648438 6.1875 21.94921875 C5.97797667 17.5361336 4.87401559 14.79044513 3 10.8125 C0 4.40277778 0 4.40277778 0 0 Z " fill="#C3BDC1" transform="translate(572,142)"/>
<path d="M0 0 C1.19908285 3.46848797 0.78945844 5.59994812 -0.3125 9.0625 C-0.57675781 9.91972656 -0.84101563 10.77695313 -1.11328125 11.66015625 C-2 14 -2 14 -4 17 C-4.99 17.33 -5.98 17.66 -7 18 C-5.64474464 13.78224268 -4.09799886 9.70578678 -2.375 5.625 C-1.92898438 4.56539062 -1.48296875 3.50578125 -1.0234375 2.4140625 C-0.68570312 1.61742188 -0.34796875 0.82078125 0 0 Z " fill="#E89E2A" transform="translate(478,124)"/>
<path d="M0 0 C0.66 0.33 1.32 0.66 2 1 C1.24275352 2.98440482 0.46877038 4.96243005 -0.3125 6.9375 C-0.74175781 8.03964844 -1.17101562 9.14179687 -1.61328125 10.27734375 C-3 13 -3 13 -6 14 C-6.33 14.66 -6.66 15.32 -7 16 C-6.57901173 10.63239961 -5.56468445 7.99676742 -2 4 C-1.29114106 2.68861096 -0.60543548 1.36222983 0 0 Z " fill="#EA9916" transform="translate(514,114)"/>
<path d="M0 0 C0.33 0.66 0.66 1.32 1 2 C0.10333658 4.24310013 -0.89146683 6.44754321 -1.9375 8.625 C-2.50339844 9.81351563 -3.06929688 11.00203125 -3.65234375 12.2265625 C-4.09707031 13.14179688 -4.54179687 14.05703125 -5 15 C-6.2238892 12.55222161 -6.016364 11.26609459 -5.75 8.5625 C-5.68296875 7.78003906 -5.6159375 6.99757812 -5.546875 6.19140625 C-4.90080748 3.6025214 -4.05180419 2.6607425 -2 1 C-1.34 0.67 -0.68 0.34 0 0 Z " fill="#EB9F27" transform="translate(472,216)"/>
<path d="M0 0 C0.33 0.66 0.66 1.32 1 2 C0.0625 4.125 0.0625 4.125 -1 6 C-0.34 6.33 0.32 6.66 1 7 C0.34 7 -0.32 7 -1 7 C-1.226875 7.515625 -1.45375 8.03125 -1.6875 8.5625 C-3.4975553 11.92403127 -5.73996404 14.92911144 -8 18 C-8.33 17.34 -8.66 16.68 -9 16 C-8.28735352 14.30419922 -8.28735352 14.30419922 -7.12890625 12.3046875 C-6.71962891 11.58925781 -6.31035156 10.87382812 -5.88867188 10.13671875 C-5.45103516 9.39035156 -5.01339844 8.64398438 -4.5625 7.875 C-4.12873047 7.12089844 -3.69496094 6.36679688 -3.24804688 5.58984375 C-2.17251034 3.72242866 -1.08715861 1.86067303 0 0 Z " fill="#CBC9CC" transform="translate(164,123)"/>
<path d="M0 0 C0.66 0 1.32 0 2 0 C2 8.58 2 17.16 2 26 C1.67 26 1.34 26 1 26 C1 18.74 1 11.48 1 4 C0.34 4 -0.32 4 -1 4 C-1.33 4.99 -1.66 5.98 -2 7 C-2.33 6.34 -2.66 5.68 -3 5 C-1.6875 2.375 -1.6875 2.375 0 0 Z " fill="#C7C7CD" transform="translate(187,139)"/>
<path d="M0 0 C0.33 0 0.66 0 1 0 C1.57412662 4.88007628 -0.27617821 7.07449213 -3 11 C-4.24324147 14.2249208 -4.24324147 14.2249208 -5 17 C-6.4783226 14.04335481 -6.06032783 11.25770263 -6 8 C-5.01 7.67 -4.02 7.34 -3 7 C-1.62665383 4.71108972 -0.84749184 2.54247553 0 0 Z " fill="#EB9811" transform="translate(488,173)"/>
<path d="M0 0 C0.66 0 1.32 0 2 0 C1.39301257 4.12751449 -0.03810791 7.3321148 -2 11 C-2.66 11 -3.32 11 -4 11 C-5 8 -5 8 -3.5625 4.8125 C-3.046875 3.884375 -2.53125 2.95625 -2 2 C-1.34 2 -0.68 2 0 2 C0 1.34 0 0.68 0 0 Z " fill="#F0A327" transform="translate(505,137)"/>
<path d="M0 0 C0.33 0.66 0.66 1.32 1 2 C0.28735352 3.69580078 0.28735352 3.69580078 -0.87109375 5.6953125 C-1.28037109 6.41074219 -1.68964844 7.12617188 -2.11132812 7.86328125 C-2.54896484 8.60964844 -2.98660156 9.35601562 -3.4375 10.125 C-3.87126953 10.87910156 -4.30503906 11.63320312 -4.75195312 12.41015625 C-5.82748966 14.27757134 -6.91284139 16.13932697 -8 18 C-8.33 17.34 -8.66 16.68 -9 16 C-8.67 15.01 -8.34 14.02 -8 13 C-8.33 12.01 -8.66 11.02 -9 10 C-8.39671875 9.92910156 -7.7934375 9.85820312 -7.171875 9.78515625 C-4.18077346 8.70384076 -3.66622754 7.23061543 -2.25 4.4375 C-1.82203125 3.61121094 -1.3940625 2.78492188 -0.953125 1.93359375 C-0.48132813 0.97646484 -0.48132813 0.97646484 0 0 Z " fill="#CECACC" transform="translate(145,215)"/>
<path d="M0 0 C0.66 0 1.32 0 2 0 C2.8638129 1.45264038 3.71580454 2.9123163 4.5625 4.375 C5.27599609 5.59316406 5.27599609 5.59316406 6.00390625 6.8359375 C6.33261719 7.55007812 6.66132812 8.26421875 7 9 C6.67 9.66 6.34 10.32 6 11 C4.68 9.02 3.36 7.04 2 5 C1.67 8.63 1.34 12.26 1 16 C0.67 16 0.34 16 0 16 C0 10.72 0 5.44 0 0 Z " fill="#CFC4CA" transform="translate(63,139)"/>
<path d="M0 0 C1.32 0.33 2.64 0.66 4 1 C4.103125 1.99 4.20625 2.98 4.3125 4 C4.90808706 8.28297163 6.38595027 11.99996371 8 16 C7.34 16.33 6.68 16.66 6 17 C4.99580363 14.5433053 3.99649499 12.08481647 3 9.625 C2.71382812 8.92632812 2.42765625 8.22765625 2.1328125 7.5078125 C0 2.2265625 0 2.2265625 0 0 Z " fill="#CAC6CD" transform="translate(570,220)"/>
<path d="M0 0 C1.4606285 2.64738916 2 3.89448334 2 7 C1.34 7 0.68 7 0 7 C-0.28875 7.5775 -0.5775 8.155 -0.875 8.75 C-1.91666667 10.83333333 -2.95833333 12.91666667 -4 15 C-5 13 -5 13 -4.00390625 9.9609375 C-3.52824219 8.77757812 -3.05257812 7.59421875 -2.5625 6.375 C-2.08941406 5.18648437 -1.61632812 3.99796875 -1.12890625 2.7734375 C-0.75636719 1.85820312 -0.38382813 0.94296875 0 0 Z " fill="#CECBD1" transform="translate(612,186)"/>
<path d="M0 0 C0.66 0.33 1.32 0.66 2 1 C1.63118644 7.14689273 0.09949571 9.69027374 -4 14 C-4.33 13.34 -4.66 12.68 -5 12 C-4.06421005 9.64018187 -3.06652192 7.30368736 -2 5 C-1.67 5 -1.34 5 -1 5 C-0.67 3.35 -0.34 1.7 0 0 Z " fill="#E89512" transform="translate(461,166)"/>
<path d="M0 0 C0.90425521 2.50673279 1.09182674 3.71678699 0.2578125 6.2890625 C-0.30292969 7.44535156 -0.30292969 7.44535156 -0.875 8.625 C-1.24367188 9.40101562 -1.61234375 10.17703125 -1.9921875 10.9765625 C-2.66042734 12.31822233 -3.3296873 13.6593746 -4 15 C-4.66 15 -5.32 15 -6 15 C-4.64475824 9.57903298 -2.63365987 4.9221313 0 0 Z " fill="#E39F2B" transform="translate(485,109)"/>
<path d="M0 0 C0.33 0 0.66 0 1 0 C1.28571429 7.42857143 1.28571429 7.42857143 -1 11 C-1.66 11 -2.32 11 -3 11 C-3 11.99 -3 12.98 -3 14 C-3.66 13.67 -4.32 13.34 -5 13 C-4.67 11.35 -4.34 9.7 -4 8 C-3.34 8 -2.68 8 -2 8 C-1.7834375 6.576875 -1.7834375 6.576875 -1.5625 5.125 C-1 2 -1 2 0 0 Z " fill="#E39516" transform="translate(450,192)"/>
<path d="M0 0 C4.95 0 9.9 0 15 0 C14.34 2.97 13.68 5.94 13 9 C12 5 12 5 13 2 C8.71 1.67 4.42 1.34 0 1 C0 0.67 0 0.34 0 0 Z " fill="#B17825" transform="translate(470,107)"/>
<path d="M0 0 C0.99 0.33 1.98 0.66 3 1 C2.566875 1.680625 2.13375 2.36125 1.6875 3.0625 C-0.17503916 6.3046978 -1.57729648 9.54486289 -3 13 C-3.93045933 10.44855176 -4.08564091 9.25993522 -3.22265625 6.640625 C-2.83980469 5.85171875 -2.45695312 5.0628125 -2.0625 4.25 C-1.68222656 3.45078125 -1.30195313 2.6515625 -0.91015625 1.828125 C-0.60980469 1.22484375 -0.30945313 0.6215625 0 0 Z " fill="#EA9B15" transform="translate(434,229)"/>
<path d="M0 0 C1.40907283 2.81814566 0.50872691 4.17277204 -0.4375 7.125 C-0.72496094 8.03507813 -1.01242187 8.94515625 -1.30859375 9.8828125 C-1.53675781 10.58148438 -1.76492188 11.28015625 -2 12 C-2.99 12 -3.98 12 -5 12 C-4.54965877 10.37276701 -4.08944646 8.74826336 -3.625 7.125 C-3.36976563 6.22007812 -3.11453125 5.31515625 -2.8515625 4.3828125 C-2 2 -2 2 0 0 Z " fill="#E79F2A" transform="translate(466,154)"/>
<path d="M0 0 C1 3 1 3 0.1875 5.625 C-1 8 -1 8 -3 9 C-5.3329866 9.04022391 -7.66706666 9.04320247 -10 9 C-10 8.67 -10 8.34 -10 8 C-8.35 8 -6.7 8 -5 8 C-5 7.01 -5 6.02 -5 5 C-3.68 4.67 -2.36 4.34 -1 4 C-0.67 2.68 -0.34 1.36 0 0 Z " fill="#D28F33" transform="translate(460,246)"/>
<path d="M0 0 C2.55234718 2.45225513 4.31418658 4.86920364 6 8 C6 8.66 6 9.32 6 10 C5.01 10.33 4.02 10.66 3 11 C0.60236815 8.60236815 0.65719414 7.66726502 0.375 4.375 C0.30023438 3.55773437 0.22546875 2.74046875 0.1484375 1.8984375 C0.09945312 1.27195313 0.05046875 0.64546875 0 0 Z " fill="#D9D8D9" transform="translate(98,142)"/>
<path d="M0 0 C0.33 0 0.66 0 1 0 C1.33 2.64 1.66 5.28 2 8 C0.35 8.66 -1.3 9.32 -3 10 C-2.39009109 6.44219804 -1.4216319 3.3171411 0 0 Z " fill="#CFCCD0" transform="translate(634,131)"/>
<path d="M0 0 C0.33 0 0.66 0 1 0 C1.30769231 6.76923077 1.30769231 6.76923077 -1 10 C-3.125 11.25 -3.125 11.25 -5 12 C-4.690625 11.46375 -4.38125 10.9275 -4.0625 10.375 C-2.82172561 7.6015043 -2.4090325 4.99957163 -2 2 C-1.34 2 -0.68 2 0 2 C0 1.34 0 0.68 0 0 Z " fill="#ED9C13" transform="translate(466,223)"/>
<path d="M0 0 C3.15295167 3.15295167 5 6.51187917 5 11 C1.125 9.25 1.125 9.25 0 7 C-0.04022391 4.6670134 -0.04320247 2.33293334 0 0 Z " fill="#CBC3C8" transform="translate(597,204)"/>
<path d="M0 0 C1.39195915 4.17587745 -0.17676781 6.13474776 -2 10 C-2.33 10 -2.66 10 -3 10 C-3.36923077 3.47692308 -3.36923077 3.47692308 -1.5 1.0625 C-1.005 0.711875 -0.51 0.36125 0 0 Z " fill="#E7A028" transform="translate(510,127)"/>
<path d="M0 0 C1.39195915 4.17587745 -0.17676781 6.13474776 -2 10 C-2.33 10 -2.66 10 -3 10 C-3 7.36 -3 4.72 -3 2 C-2.01 2 -1.02 2 0 2 C0 1.34 0 0.68 0 0 Z " fill="#ED9D1B" transform="translate(520,102)"/>
<path d="M0 0 C0.66 0 1.32 0 2 0 C2 1.98 2 3.96 2 6 C1.67 5.34 1.34 4.68 1 4 C0.34 4 -0.32 4 -1 4 C-1.33 4.99 -1.66 5.98 -2 7 C-2.33 6.34 -2.66 5.68 -3 5 C-1.6875 2.375 -1.6875 2.375 0 0 Z " fill="#BDB4B6" transform="translate(187,139)"/>
<path d="M0 0 C0.6875 1.625 0.6875 1.625 1 4 C-0.4375 7.25 -0.4375 7.25 -2 10 C-2.98120464 6.94736336 -2.98120464 5.05263664 -2 2 C-1.34 2 -0.68 2 0 2 C0 1.34 0 0.68 0 0 Z " fill="#EB9914" transform="translate(481,122)"/>
<path d="M0 0 C0.33 0 0.66 0 1 0 C1 1.98 1 3.96 1 6 C0.01 6.495 0.01 6.495 -1 7 C-1.66 6.34 -2.32 5.68 -3 5 C-2.03114628 3.31503702 -1.03013277 1.64821244 0 0 Z " fill="#EB950D" transform="translate(487,111)"/>
</svg>
